<?xml version="1.0" encoding="UTF-8" standalone="no"?>
<!DOCTYPE svg PUBLIC "-//W3C//DTD SVG 1.1//EN" "http://www.w3.org/Graphics/SVG/1.1/DTD/svg11.dtd">
<svg width="100%" height="100%" viewBox="0 0 150 20" version="1.1" xmlns="http://www.w3.org/2000/svg" xmlns:xlink="http://www.w3.org/1999/xlink" xml:space="preserve" xmlns:serif="http://www.serif.com/" style="fill-rule:evenodd;clip-rule:evenodd;stroke-linejoin:round;stroke-miterlimit:2;">
    <g transform="matrix(0.583202,0,0,0.583202,-9.37873,-238.04)">
        <g>
            <path d="M65.721,422.304C53.358,432.036 30.978,432.536 17.442,425.099C16.421,424.538 15.506,426.1 16.528,426.662C24.794,431.203 34.379,431.993 43.654,431.448C52.101,430.951 60.266,428.886 67.001,423.584C67.916,422.864 66.627,421.591 65.721,422.304Z" style="fill:rgb(231,163,123);fill-rule:nonzero;"/>
        </g>
        <path d="M37.925,430.671C39.94,430.948 41.898,431.639 43.641,432.687C45.062,433.542 46.331,434.623 47.633,435.65C50.049,437.556 52.6,439.29 55.261,440.835C51.922,440.696 48.395,440.497 45.615,438.643C44.675,438.015 43.859,437.221 43.05,436.431C41.836,435.246 40.622,434.061 39.408,432.876C38.774,432.257 38.125,431.628 37.332,431.233" style="fill:rgb(231,163,123);fill-rule:nonzero;"/>
        <path d="M48.528,430.293C52.943,428.77 56.397,424.744 57.23,420.148C57.401,419.203 57.469,418.241 57.666,417.302C57.915,416.11 58.37,414.962 59.006,413.924C57.799,415.586 55.805,416.521 54.529,418.131C53.132,419.894 52.764,422.231 51.944,424.325C50.989,426.762 49.366,428.934 47.3,430.542" style="fill:rgb(231,163,123);fill-rule:nonzero;"/>
        <path d="M60.566,426.949C63.552,424.844 65.788,421.792 68.84,419.783C70.61,418.618 72.602,417.841 74.576,417.072C77.064,416.103 79.553,415.134 82.041,414.165C81.128,415.092 80.193,415.998 79.238,416.881C75.656,420.192 74.133,422.878 69.473,424.321C68.266,424.694 65.572,425.632 64.336,425.893C62.809,426.215 62.21,426.605 60.683,426.926" style="fill:rgb(231,163,123);fill-rule:nonzero;"/>
        <path d="M50.69,429.831C51.871,429.432 53.162,429.525 54.39,429.743C57.11,430.226 59.689,431.287 62.243,432.341C64.195,433.147 66.148,433.953 68.1,434.758C65.183,434.739 62.218,434.714 59.425,433.871C58.03,433.45 56.704,432.832 55.341,432.316C53.564,431.644 52.113,430.54 50.274,430.064" style="fill:rgb(231,163,123);fill-rule:nonzero;"/>
        <g>
            <g>
                <path d="M113.748,428.31C101.385,418.578 79.005,418.078 65.469,425.515C64.448,426.076 63.533,424.514 64.555,423.952C72.821,419.411 82.406,418.621 91.681,419.166C100.128,419.663 108.293,421.728 115.028,427.03C115.943,427.75 114.654,429.023 113.748,428.31Z" style="fill:rgb(231,163,123);fill-rule:nonzero;"/>
            </g>
            <path d="M85.952,419.944C87.967,419.667 89.925,418.976 91.668,417.928C93.089,417.074 94.358,415.992 95.66,414.965C98.076,413.059 100.627,411.325 103.288,409.78C99.95,409.919 96.422,410.118 93.642,411.972C92.702,412.6 91.886,413.394 91.077,414.184C89.863,415.369 88.649,416.554 87.435,417.739C86.801,418.358 86.152,418.987 85.359,419.382" style="fill:rgb(231,163,123);fill-rule:nonzero;"/>
            <path d="M96.555,420.322C100.97,421.845 104.424,425.871 105.257,430.467C105.428,431.412 105.496,432.374 105.693,433.313C105.942,434.505 106.397,435.653 107.033,436.691C105.826,435.029 103.832,434.094 102.556,432.484C101.159,430.721 100.791,428.384 99.971,426.29C99.016,423.853 97.393,421.681 95.327,420.073" style="fill:rgb(231,163,123);fill-rule:nonzero;"/>
            <path d="M108.593,423.666C111.579,425.771 113.815,428.823 116.867,430.832C118.637,431.997 120.629,432.774 122.603,433.543C125.091,434.512 127.58,435.481 130.068,436.45C129.155,435.523 128.22,434.617 127.265,433.734C123.683,430.422 122.16,427.737 117.5,426.294C116.293,425.92 113.599,424.983 112.363,424.722C110.836,424.4 110.237,424.011 108.71,423.689" style="fill:rgb(231,163,123);fill-rule:nonzero;"/>
            <path d="M98.717,420.783C99.898,421.182 101.189,421.089 102.417,420.871C105.137,420.388 107.716,419.327 110.27,418.273C112.222,417.467 114.175,416.661 116.127,415.856C113.21,415.875 110.245,415.9 107.452,416.743C106.057,417.164 104.731,417.782 103.368,418.298C101.591,418.971 100.14,420.074 98.301,420.55" style="fill:rgb(231,163,123);fill-rule:nonzero;"/>
        </g>
        <g>
            <path d="M161.342,422.304C148.979,432.036 126.599,432.536 113.063,425.099C112.041,424.538 111.127,426.1 112.149,426.662C120.414,431.203 129.999,431.993 139.275,431.448C147.722,430.951 155.887,428.886 162.622,423.584C163.536,422.864 162.247,421.591 161.342,422.304Z" style="fill:rgb(231,163,123);fill-rule:nonzero;"/>
        </g>
        <path d="M133.545,430.671C135.56,430.948 137.518,431.639 139.261,432.687C140.682,433.542 141.951,434.623 143.253,435.65C145.669,437.556 148.22,439.29 150.881,440.835C147.542,440.696 144.015,440.497 141.235,438.643C140.294,438.015 139.479,437.221 138.67,436.431C137.456,435.246 136.242,434.061 135.028,432.876C134.394,432.257 133.746,431.628 132.952,431.233" style="fill:rgb(231,163,123);fill-rule:nonzero;"/>
        <path d="M144.148,430.293C148.563,428.77 152.017,424.744 152.85,420.148C153.021,419.203 153.089,418.241 153.286,417.302C153.535,416.11 153.99,414.962 154.626,413.924C153.42,415.586 151.425,416.521 150.149,418.131C148.752,419.894 148.384,422.231 147.564,424.325C146.609,426.762 144.986,428.934 142.92,430.542" style="fill:rgb(231,163,123);fill-rule:nonzero;"/>
        <path d="M156.187,426.949C159.173,424.844 161.409,421.792 164.461,419.783C166.231,418.618 168.223,417.841 170.197,417.072C172.685,416.103 175.174,415.134 177.662,414.165C176.749,415.092 175.814,415.998 174.859,416.881C171.277,420.192 169.754,422.878 165.094,424.321C163.887,424.694 161.193,425.632 159.957,425.893C158.43,426.215 157.831,426.605 156.304,426.926" style="fill:rgb(231,163,123);fill-rule:nonzero;"/>
        <path d="M144.447,427.968C145.629,427.569 146.919,427.662 148.147,427.88C150.867,428.363 153.446,429.424 156,430.478C157.952,431.284 159.905,432.09 161.857,432.895C158.94,432.876 155.975,432.851 153.182,432.008C151.787,431.587 150.461,430.969 149.098,430.453C147.321,429.781 145.87,428.677 144.031,428.201" style="fill:rgb(231,163,123);fill-rule:nonzero;"/>
        <g>
            <g>
                <path d="M209.368,428.31C197.005,418.578 174.625,418.078 161.089,425.515C160.067,426.076 159.153,424.514 160.175,423.952C168.441,419.411 178.025,418.621 187.301,419.166C195.748,419.663 203.913,421.728 210.648,427.03C211.563,427.75 210.274,429.023 209.368,428.31Z" style="fill:rgb(231,163,123);fill-rule:nonzero;"/>
            </g>
            <path d="M181.572,419.944C183.587,419.667 185.545,418.976 187.288,417.928C188.709,417.074 189.978,415.992 191.28,414.965C193.696,413.059 196.247,411.325 198.908,409.78C195.57,409.919 192.042,410.118 189.262,411.972C188.321,412.6 187.506,413.394 186.697,414.184C185.483,415.369 184.269,416.554 183.055,417.739C182.421,418.358 181.773,418.987 180.979,419.382" style="fill:rgb(231,163,123);fill-rule:nonzero;"/>
            <path d="M192.175,420.322C196.59,421.845 200.044,425.871 200.877,430.467C201.048,431.412 201.116,432.374 201.313,433.313C201.562,434.505 202.017,435.653 202.653,436.691C201.447,435.029 199.452,434.094 198.176,432.484C196.779,430.721 196.411,428.384 195.591,426.29C194.636,423.853 193.013,421.681 190.947,420.073" style="fill:rgb(231,163,123);fill-rule:nonzero;"/>
            <path d="M204.214,423.666C207.2,425.771 209.436,428.823 212.488,430.832C214.258,431.997 216.25,432.774 218.224,433.543C220.712,434.512 223.201,435.481 225.689,436.45C224.776,435.523 223.841,434.617 222.886,433.734C219.304,430.422 217.781,427.737 213.121,426.294C211.914,425.92 209.22,424.983 207.984,424.722C206.457,424.4 205.858,424.011 204.331,423.689" style="fill:rgb(231,163,123);fill-rule:nonzero;"/>
            <path d="M194.337,420.783C195.519,421.182 196.809,421.089 198.037,420.871C200.757,420.388 203.336,419.327 205.89,418.273C207.842,417.467 209.795,416.661 211.747,415.856C208.83,415.875 205.865,415.9 203.072,416.743C201.677,417.164 200.351,417.782 198.988,418.298C197.211,418.971 195.76,420.074 193.921,420.55" style="fill:rgb(231,163,123);fill-rule:nonzero;"/>
        </g>
        <g>
            <path d="M256.962,422.304C244.599,432.036 222.219,432.536 208.683,425.099C207.661,424.538 206.747,426.1 207.769,426.662C216.035,431.203 225.619,431.993 234.895,431.448C243.342,430.951 251.507,428.886 258.242,423.584C259.157,422.864 257.868,421.591 256.962,422.304Z" style="fill:rgb(231,163,123);fill-rule:nonzero;"/>
        </g>
        <path d="M229.166,430.671C231.181,430.948 233.139,431.639 234.882,432.687C236.303,433.542 237.572,434.623 238.874,435.65C241.29,437.556 243.841,439.29 246.502,440.835C243.164,440.696 239.636,440.497 236.856,438.643C235.915,438.015 235.1,437.221 234.291,436.431C233.077,435.246 231.863,434.061 230.649,432.876C230.015,432.257 229.367,431.628 228.573,431.233" style="fill:rgb(231,163,123);fill-rule:nonzero;"/>
        <path d="M239.769,430.293C244.184,428.77 247.638,424.744 248.47,420.148C248.641,419.203 248.709,418.241 248.906,417.302C249.155,416.11 249.61,414.962 250.246,413.924C249.04,415.586 247.045,416.521 245.769,418.131C244.372,419.894 244.004,422.231 243.184,424.325C242.229,426.762 240.606,428.934 238.54,430.542" style="fill:rgb(231,163,123);fill-rule:nonzero;"/>
        <path d="M251.807,426.949C254.793,424.844 257.029,421.792 260.081,419.783C261.851,418.618 263.843,417.841 265.817,417.072C268.305,416.103 270.794,415.134 273.282,414.165C272.369,415.092 271.434,415.998 270.479,416.881C266.897,420.192 265.374,422.878 260.714,424.321C259.507,424.694 256.813,425.632 255.577,425.893C254.05,426.215 253.451,426.605 251.924,426.926" style="fill:rgb(231,163,123);fill-rule:nonzero;"/>
        <path d="M241.931,429.831C243.113,429.432 244.403,429.525 245.631,429.743C248.351,430.226 250.93,431.287 253.484,432.341C255.436,433.147 257.389,433.953 259.341,434.758C256.424,434.739 253.459,434.714 250.666,433.871C249.271,433.45 247.945,432.832 246.582,432.316C244.805,431.644 243.354,430.54 241.515,430.064" style="fill:rgb(231,163,123);fill-rule:nonzero;"/>
    </g>
</svg>
