<?xml version="1.0" encoding="UTF-8" standalone="no"?>
<!DOCTYPE svg PUBLIC "-//W3C//DTD SVG 1.1//EN" "http://www.w3.org/Graphics/SVG/1.1/DTD/svg11.dtd">
<svg width="100%" height="100%" viewBox="0 0 300 64" version="1.1" xmlns="http://www.w3.org/2000/svg" xmlns:xlink="http://www.w3.org/1999/xlink" xml:space="preserve" xmlns:serif="http://www.serif.com/" style="fill-rule:evenodd;clip-rule:evenodd;stroke-linejoin:round;stroke-miterlimit:2;">
    <g transform="matrix(0.139644,-3.63714,3.63714,0.139644,-681.713,455.992)">
        <path d="M127.388,182.57C123.703,183.832 119.69,192.01 115.807,195.561C115.637,195.706 115.503,195.832 115.457,196.047C115.453,196.067 115.459,196.087 115.457,196.107C115.288,196.48 115.457,196.882 115.802,197.074C117.5,198.027 119.263,198.853 121.114,199.452C116.112,213.804 117.644,228.352 121.774,243.078C121.33,243.401 118.486,252.432 118.454,257.528C118.418,264.854 125.61,270.323 126.829,257.444C130.757,263.045 136.831,264.35 134.887,257.252C134.534,255.952 133.995,254.724 133.33,253.552C130.897,249.262 123.778,242.649 123.023,242.468C118.972,228.252 117.563,213.685 122.455,199.834C123.681,200.135 129.935,201.102 129.504,199.145C129.579,198.981 129.601,198.793 129.532,198.617C127.243,192.737 129.594,181.814 127.388,182.57ZM122.531,263.466C117.991,260.198 121.022,251.07 122.535,245.682C122.959,247.088 124.825,253.26 125.393,254.629C125.683,258.024 124.208,264.399 122.531,263.466ZM133.78,260.367C133.194,261.836 128.212,258.343 126.897,254.727C126.88,254.514 126.919,254.456 126.765,254.208C126.765,254.208 124.499,247.353 123.788,245.041C127.304,248.229 135.079,255.661 133.78,260.367ZM128.022,198.535C123.61,198.832 120.835,198.063 117.153,196.108C121.07,192.294 123.123,187.093 127.088,184.205C127.545,189.369 126.65,192.695 128.022,198.535Z" style="fill:rgb(180,106,72);fill-rule:nonzero;"/>
    </g>
</svg>
