<?xml version="1.0" encoding="UTF-8" standalone="no"?>
<!DOCTYPE svg PUBLIC "-//W3C//DTD SVG 1.1//EN" "http://www.w3.org/Graphics/SVG/1.1/DTD/svg11.dtd">
<svg width="100%" height="100%" viewBox="0 0 50 48" version="1.1" xmlns="http://www.w3.org/2000/svg" xmlns:xlink="http://www.w3.org/1999/xlink" xml:space="preserve" xmlns:serif="http://www.serif.com/" style="fill-rule:evenodd;clip-rule:evenodd;stroke-linejoin:round;stroke-miterlimit:2;">
    <g id="divider-heart" transform="matrix(0.543206,0,0,0.543206,-264.257,-632.193)">
        <g transform="matrix(2.55578,0,0,2.55578,-379.814,1044.54)">
            <path d="M348.772,59.23C347.032,61.104 346.963,63.841 346.929,66.672C344.967,64.996 340.601,61.366 339.172,63.623C337.147,66.882 349.837,79.555 351.798,80.983C352.005,81.13 352.404,81.095 352.624,80.799C352.853,80.672 352.977,80.402 352.953,80.231C352.293,75.347 353.178,68.99 351.894,63.675C351.414,61.719 349.791,58.117 348.772,59.23ZM340.253,64.364C340.253,64.37 340.252,64.377 340.252,64.383L340.252,64.384C340.252,64.377 340.252,64.37 340.253,64.364ZM340.251,64.385C340.25,64.402 340.248,64.42 340.247,64.438C340.248,64.421 340.249,64.403 340.251,64.385ZM351.553,79.117C343.789,71.88 335.234,59.689 343.765,65.857L343.764,65.857C344.933,66.715 346.042,67.658 347.112,68.637C347.286,68.801 347.534,68.864 347.764,68.797C348.065,68.71 348.244,68.443 348.252,68.138C348.343,65.503 348.102,62.704 349.268,60.722C352.253,64.967 351.159,73.544 351.553,79.117Z" style="fill:rgb(83,64,44);fill-rule:nonzero;"/>
        </g>
        <g transform="matrix(2.55578,0,0,2.55578,-379.814,1044.54)">
            <path d="M366.803,53.826C366.654,52.739 365.909,48.09 364.835,47.867C364.449,47.784 364.028,47.981 363.856,48.325C363.385,49.276 362.996,50.326 362.699,51.446C361.919,54.372 361.813,58.022 361.157,61.116C361.035,61.297 360.98,61.526 361.016,61.753C360.774,62.726 361.993,63.235 362.496,62.432C366.4,60.031 372.367,56.622 374.421,52.894C375.434,51.029 371.261,50.488 366.803,53.826Z" style="fill:rgb(221,183,150);fill-rule:nonzero;"/>
            <path d="M374.59,53.365C374.957,52.8 375.119,52.07 374.793,51.455C373.528,49.075 369.299,51.419 367.039,53.291C366.996,51.683 366.907,48.145 365.639,47.169C365.01,46.681 364.272,46.744 363.72,47.419C361.796,49.819 359.511,64.409 361.976,63.772C362.217,63.844 362.495,63.784 362.669,63.586C365.163,60.79 368.108,59.11 371.699,56.145C371.698,56.146 371.696,56.147 371.695,56.148C372.74,55.305 373.846,54.503 374.59,53.365ZM370.52,55.348C367.793,57.586 364.937,59.417 362.159,62.168C361.56,59.152 363.538,48.827 364.755,48.044C365.773,47.991 365.792,53.819 365.794,54.839C365.796,55.42 366.591,55.653 366.903,55.245C368.732,52.914 374.032,50.688 373.569,52.351C373.068,53.529 369.692,55.979 370.52,55.348Z" style="fill:rgb(83,64,44);fill-rule:nonzero;"/>
        </g>
    </g>
</svg>
