<?xml version="1.0" encoding="UTF-8" standalone="no"?>
<!DOCTYPE svg PUBLIC "-//W3C//DTD SVG 1.1//EN" "http://www.w3.org/Graphics/SVG/1.1/DTD/svg11.dtd">
<svg width="100%" height="100%" viewBox="0 0 500 137" version="1.1" xmlns="http://www.w3.org/2000/svg" xmlns:xlink="http://www.w3.org/1999/xlink" xml:space="preserve" xmlns:serif="http://www.serif.com/" style="fill-rule:evenodd;clip-rule:evenodd;stroke-linejoin:round;stroke-miterlimit:2;">
    <g transform="matrix(3.08445e-17,0.503728,-0.503728,3.08445e-17,635.882,-1310.07)">
        <g transform="matrix(3.07212,9.86076e-32,-9.86076e-32,3.07212,1336.32,-547.665)">
            <path d="M463.513,332.022C452.908,342.14 441.784,353.158 438.724,367.492C433.263,393.075 455.468,418.951 448.867,444.265C442.987,466.817 416.249,479.909 412.339,502.887C409.947,516.935 417.18,531.212 427.503,541.036C437.826,550.86 450.946,557.103 463.706,563.449C476.467,569.794 489.397,576.627 498.891,587.256C499.273,587.684 499.629,588.136 500,588.575L500,297.21C487.838,308.814 475.675,320.418 463.513,332.022Z" style="fill:rgb(231,163,123);fill-rule:nonzero;"/>
        </g>
        <g transform="matrix(3.07212,0,0,3.07212,1359.34,-551.635)">
            <path d="M523.854,468.672L518.906,468.075C519.899,459.863 515.195,451.328 507.725,447.781C502.269,445.191 496.064,445.183 489.494,445.176C484.78,445.171 479.905,445.164 475.165,444.156C465.545,442.111 456.907,435.784 452.059,427.23C447.209,418.679 446.214,408.017 449.398,398.712C451.892,391.426 456.632,385.37 461.22,379.516C462.185,378.28 463.153,377.046 464.095,375.804C468.639,369.813 473.817,361.845 473.545,353.335C473.343,347.075 470.327,341.386 467.136,335.361C464.715,330.796 462.215,326.078 460.908,320.928C456.873,305.049 465.225,289.449 474.384,280.143C484.71,269.657 498.499,262.978 510.666,257.084L512.836,261.567C500.457,267.564 487.655,273.766 477.935,283.639C469.725,291.976 462.212,305.828 465.734,319.702C466.897,324.272 469.149,328.526 471.536,333.028C474.853,339.289 478.283,345.764 478.521,353.175C478.848,363.249 473.104,372.168 468.064,378.813C467.106,380.077 466.124,381.331 465.141,382.587C460.611,388.371 456.333,393.834 454.112,400.325C451.383,408.302 452.234,417.442 456.393,424.773C460.551,432.105 467.955,437.53 476.201,439.284C480.434,440.182 484.836,440.188 489.499,440.193C496.332,440.202 503.395,440.211 509.861,443.281C519.209,447.72 525.093,458.396 523.854,468.672Z" style="fill:rgb(180,106,72);fill-rule:nonzero;"/>
        </g>
    </g>
</svg>
