<?xml version="1.0" encoding="UTF-8" standalone="no"?>
<!DOCTYPE svg PUBLIC "-//W3C//DTD SVG 1.1//EN" "http://www.w3.org/Graphics/SVG/1.1/DTD/svg11.dtd">
<svg width="100%" height="100%" viewBox="0 0 346 1221" version="1.1" xmlns="http://www.w3.org/2000/svg" xmlns:xlink="http://www.w3.org/1999/xlink" xml:space="preserve" xmlns:serif="http://www.serif.com/" style="fill-rule:evenodd;clip-rule:evenodd;stroke-linejoin:round;stroke-miterlimit:2;">
    <g transform="matrix(-4.16667,0,0,4.16667,345.625,-3165.34)">
        <path d="M63.82,936.587C80.989,915.782 90.21,884.764 76.004,861.833C67.468,848.054 52.423,840.015 39.346,830.436C23.802,819.053 10.423,804.748 0,788.546L0,992.257C0.946,991.357 1.902,990.47 2.866,989.601C22.897,971.535 46.651,957.391 63.82,936.587Z" style="fill:rgb(221,183,150);fill-rule:nonzero;"/>
    </g>
    <g transform="matrix(-4.16667,0,0,-4.16667,345.625,4385.22)">
        <path d="M-2.459,1052.69C-2.841,1052.69 -3.223,1052.68 -3.608,1052.66L-3.408,1047.69C13.38,1048.34 26.036,1031.21 28.137,1014.95C30.01,1000.45 26.072,985.651 22.263,971.337C21.54,968.624 20.821,965.92 20.14,963.222C16.073,947.104 12.572,926.386 21.655,909.071C25.963,900.862 32.623,894.411 39.064,888.172C43.481,883.891 48.049,879.464 51.707,874.579C65.553,856.098 66.368,828.696 53.646,809.427C45.507,797.097 32.474,788.07 20.977,780.106L-30.33,744.578L-27.494,740.482L23.812,776.01C35.683,784.231 49.137,793.548 57.806,806.682C71.646,827.648 70.758,857.46 55.697,877.566C51.8,882.766 47.088,887.333 42.53,891.75C36.086,897.989 30.003,903.886 26.067,911.387C17.768,927.205 21.12,946.747 24.97,962.001C25.646,964.679 26.362,967.364 27.077,970.055C31.01,984.837 35.077,1000.12 33.08,1015.58C30.74,1033.66 16.559,1052.68 -2.459,1052.69Z" style="fill:rgb(180,106,72);fill-rule:nonzero;"/>
    </g>
</svg>
