<?xml version="1.0" encoding="UTF-8" standalone="no"?>
<!DOCTYPE svg PUBLIC "-//W3C//DTD SVG 1.1//EN" "http://www.w3.org/Graphics/SVG/1.1/DTD/svg11.dtd">
<svg width="100%" height="100%" viewBox="0 0 500 562" version="1.1" xmlns="http://www.w3.org/2000/svg" xmlns:xlink="http://www.w3.org/1999/xlink" xml:space="preserve" xmlns:serif="http://www.serif.com/" style="fill-rule:evenodd;clip-rule:evenodd;stroke-linejoin:round;stroke-miterlimit:2;">
    <g id="Shape-Mask" serif:id="Shape Mask" transform="matrix(0.373269,0,0,0.373269,-775.74,-152.712)">
        <path d="M2137.21,1726.99C2060.59,1343.73 2056.76,965.976 2136.69,594.564C2152.88,519.332 2223.74,460.177 2314.9,444.886C2601.63,396.786 2890.76,397.587 3182.18,444.955C3275.67,460.15 3347.95,521.576 3362.28,598.94C3433.75,984.544 3437.85,1362.2 3364.72,1730.74C3349.36,1808.16 3276.02,1869.26 3182.03,1883.22C2903.94,1924.52 2617.28,1921.39 2323.35,1880.69C2227.62,1867.43 2152.94,1805.66 2137.21,1726.99Z" style="fill:white;fill-rule:nonzero;"/>
        <g transform="matrix(0.819998,0,0,0.819998,1892.41,-44.339)">
            <path d="M1482.98,827.09C1474.17,831.975 1467.78,844.149 1472.62,854.125C1477.95,865.097 1484.01,874.879 1492.52,883.635C1501.43,892.791 1512.18,896.535 1524.61,898.631C1545.89,902.216 1555.21,875.679 1541.16,862.09C1535.8,856.909 1531.27,851.438 1525.23,846.906C1519.87,842.879 1515.17,838.874 1511.06,833.578C1504.38,824.988 1492.78,821.659 1482.98,827.09ZM1369.58,799.197C1362.25,800.303 1355.93,803.131 1350.46,808.209C1345.14,813.145 1340.72,820.067 1339.88,827.482C1338.91,835.935 1340.19,845.295 1345.6,852.16C1347.39,854.438 1349.15,856.748 1350.99,858.996C1357.3,866.757 1364.72,871.923 1374.83,873.454C1376.03,873.636 1377.25,873.724 1378.46,873.858C1388.42,874.967 1397.27,872.415 1404.64,865.57C1411.63,859.085 1416.48,849.041 1414.83,839.218C1413.09,828.83 1410.6,818.747 1401.73,811.866C1399.41,810.061 1396.9,808.451 1394.5,806.751C1387.37,801.716 1378.62,797.833 1369.58,799.197ZM1589.9,785.435C1581.49,786.149 1574.26,794.714 1575.51,803.226C1576.88,812.66 1584.13,817.571 1593.18,817.603C1598.42,817.621 1603.66,817.64 1608.9,817.658C1616.85,817.686 1622.65,815.951 1628.14,809.81C1633.66,803.637 1631.82,794.519 1626.31,789.246C1616.91,780.265 1601.66,784.436 1589.9,785.435ZM1210.22,691.476C1197.05,698.506 1189.95,715.074 1195.68,729.414C1204.5,751.449 1217.41,777.271 1241.06,785.755C1255.66,790.995 1272.26,783.944 1274.96,767.367C1279.01,742.437 1264.8,719.212 1249.62,700.581C1239.85,688.58 1224.34,683.944 1210.22,691.476ZM1501.48,718.143C1499.49,718.095 1496.15,718.5 1494.12,717.994C1492.44,718.08 1492.31,717.995 1493.71,717.743C1497.09,717.024 1494.94,716.889 1487.26,717.336C1477.87,718.753 1468.41,722.631 1459.35,725.408C1446.29,729.408 1439.57,744.935 1442.5,757.437C1445.4,769.84 1458.25,780.996 1471.74,778.46C1480.57,776.8 1491.95,776.286 1500.2,772.744C1504.76,770.785 1508.82,767.666 1513.1,765.167C1518.86,761.808 1523.47,757.293 1526.11,751.046C1529.9,742.061 1527.75,731.283 1520.19,724.973C1514.77,720.442 1508.46,718.311 1501.48,718.143ZM1698.62,692.268C1689.81,697.153 1683.41,709.328 1688.25,719.304C1693.58,730.276 1699.64,740.058 1708.15,748.814C1717.06,757.969 1727.81,761.714 1740.25,763.809C1761.53,767.394 1770.84,740.858 1756.79,727.269C1751.43,722.087 1746.9,716.617 1740.86,712.085C1735.5,708.058 1730.81,704.052 1726.69,698.756C1720.02,690.167 1708.41,686.838 1698.62,692.268ZM1367.42,713.054C1361.94,712.852 1357.34,713.32 1352.6,716.384C1348.56,719.001 1346.46,722.552 1343.99,726.583C1342.15,729.577 1340.33,732.579 1338.49,735.577C1336.53,738.788 1336.7,743.544 1337.51,746.973C1338.35,750.586 1340.23,754.278 1343.26,756.581C1349.1,761.024 1358.8,762.63 1364.86,757.378C1373.21,750.134 1385.35,742.074 1382.71,729.228C1381.89,725.205 1380.7,721.883 1377.86,718.795C1375.34,716.064 1371.29,713.196 1367.42,713.054ZM1585.21,664.376C1577.88,665.481 1571.56,668.309 1566.09,673.388C1560.77,678.323 1556.36,685.245 1555.51,692.661C1554.54,701.114 1555.83,710.473 1561.23,717.339C1563.03,719.617 1564.79,721.927 1566.62,724.174C1572.93,731.935 1580.35,737.101 1590.46,738.633C1591.66,738.815 1592.88,738.902 1594.09,739.037C1604.05,740.146 1612.9,737.593 1620.28,730.748C1627.26,724.264 1632.11,714.219 1630.46,704.396C1628.72,694.009 1626.23,683.925 1617.36,677.045C1615.04,675.24 1612.53,673.629 1610.13,671.93C1603,666.894 1594.25,663.011 1585.21,664.376ZM1805.53,650.613C1797.12,651.327 1789.89,659.893 1791.14,668.404C1792.52,677.839 1799.76,682.75 1808.81,682.781C1814.05,682.8 1819.29,682.818 1824.53,682.837C1832.48,682.864 1838.29,681.129 1843.77,674.988C1849.29,668.816 1847.45,659.698 1841.94,654.424C1832.55,645.443 1817.29,649.614 1805.53,650.613ZM1425.85,556.654C1412.68,563.684 1405.58,580.253 1411.31,594.592C1420.13,616.628 1433.04,642.449 1456.69,650.934C1471.3,656.173 1487.89,649.123 1490.59,632.545C1494.64,607.615 1480.43,584.391 1465.25,565.76C1455.48,553.758 1439.97,549.123 1425.85,556.654ZM1717.11,583.322C1715.12,583.274 1711.79,583.678 1709.75,583.173C1708.07,583.258 1707.94,583.174 1709.35,582.922C1712.72,582.203 1710.57,582.067 1702.89,582.515C1693.5,583.931 1684.04,587.81 1674.98,590.586C1661.92,594.586 1655.2,610.113 1658.13,622.615C1661.03,635.019 1673.88,646.174 1687.37,643.638C1696.2,641.979 1707.58,641.464 1715.83,637.922C1720.39,635.964 1724.45,632.845 1728.73,630.346C1734.49,626.987 1739.1,622.472 1741.74,616.224C1745.53,607.24 1743.38,596.462 1735.82,590.152C1730.39,585.62 1724.09,583.489 1717.11,583.322ZM1583.05,578.232C1577.57,578.031 1572.98,578.498 1568.24,581.563C1564.19,584.179 1562.09,587.731 1559.62,591.761C1557.78,594.755 1555.95,597.757 1554.12,600.755C1552.16,603.966 1552.34,608.723 1553.14,612.151C1553.99,615.765 1555.86,619.456 1558.89,621.759C1564.73,626.202 1574.43,627.808 1580.49,622.557C1588.84,615.312 1600.98,607.252 1598.34,594.407C1597.52,590.384 1596.34,587.061 1593.49,583.974C1590.98,581.243 1586.92,578.375 1583.05,578.232Z" style="fill:rgb(221,183,150);"/>
        </g>
        <g id="Shape" transform="matrix(0.577152,0,0,0.577152,904.743,-571.056)">
            <path d="M2159.48,2471.48C2149.74,2494.32 2139.96,2517.09 2130.17,2539.91C2127.36,2546.55 2124.68,2553.91 2121.91,2561.62C2124.85,2562.56 2127.97,2563.35 2131.16,2564.04C2206.24,2580.61 2265.62,2503.49 2302.19,2442.89C2289.08,2445.3 2276.11,2447.43 2264.22,2449.95C2229.34,2457.43 2194.57,2464.93 2159.48,2471.48ZM2123.41,2460.95C2101.8,2413.7 2077.31,2366.46 2057.43,2318.02C2033.74,2417.48 2034.71,2503.95 2086.69,2544.08C2089.7,2538.11 2092.56,2532.29 2094.97,2526.73C2104.42,2504.76 2113.92,2482.85 2123.41,2460.95ZM2181.97,2419.09C2180.4,2422.81 2178.79,2426.45 2177.23,2430.11C2202.45,2423.8 2227.79,2417.76 2253.17,2411.8C2277.15,2406.17 2304.45,2396.58 2330.77,2392.61C2348.51,2360.39 2365.87,2327.96 2382.21,2295.08C2328.28,2315.79 2270.64,2329.71 2215.26,2340.89C2204.15,2366.93 2193.02,2393.03 2181.97,2419.09ZM2147.26,2406.16C2157.69,2382.32 2168.06,2358.46 2178.43,2334.6C2153.29,2280.33 2127.67,2226.2 2105.07,2170.78C2091.05,2206.3 2078.46,2242.13 2068.3,2276.95C2095.91,2322.24 2118.16,2371.66 2141.39,2419.7C2143.34,2415.21 2145.25,2410.64 2147.26,2406.16ZM2494.09,1916.28C2459.29,1923.9 2424.04,1929.85 2388.61,1933.32C2355.77,2013.19 2321.52,2092.46 2287.56,2171.8C2269.94,2212.89 2252.39,2253.95 2234.83,2295.06C2294.07,2278.55 2351.14,2257.26 2409.43,2237.84C2434.11,2183.2 2455.32,2127.24 2470.53,2069.33C2483.71,2019.12 2491.92,1967.85 2494.09,1916.28ZM2245.34,2180.84C2220.49,2128.39 2194.15,2076.13 2171.53,2022.51C2153.69,2058.32 2135.68,2097.01 2119.02,2136.54C2147.63,2186.01 2173.21,2237.08 2198.62,2288.29C2214.22,2252.48 2229.81,2216.66 2245.34,2180.84ZM2297.11,2061.63C2268.59,2018.92 2245.63,1970.57 2225.02,1922.32C2213.47,1942.46 2201.11,1965.07 2188.42,1989.46C2215.74,2038.1 2239.32,2089.16 2263.24,2139.62C2274.53,2113.63 2285.76,2087.62 2297.11,2061.63ZM2359.93,1919.3C2390.81,1851.09 2419.26,1781.14 2451.73,1713.52C2421.91,1694.66 2380.04,1723.49 2342.54,1761.41C2316.16,1788.06 2291.95,1819.19 2275.66,1841.49C2267.43,1852.74 2256.35,1869.56 2243.52,1890.8C2268.77,1934.81 2293.52,1980.8 2311.83,2027.78C2327.65,1991.53 2343.64,1955.38 2359.93,1919.3ZM2494.59,1882.06C2494.18,1848.73 2491.16,1815.36 2485.26,1782.25C2481.74,1762.65 2476.9,1747.52 2471.03,1736.18C2448.74,1792.99 2423.83,1849 2400.24,1905.23C2431.2,1895.76 2462.78,1888.26 2494.59,1882.06Z" style="fill:rgb(238,219,203);"/>
        </g>
    </g>
</svg>
