<?xml version="1.0" encoding="UTF-8" standalone="no"?>
<!DOCTYPE svg PUBLIC "-//W3C//DTD SVG 1.1//EN" "http://www.w3.org/Graphics/SVG/1.1/DTD/svg11.dtd">
<svg width="100%" height="100%" viewBox="0 0 500 181" version="1.1" xmlns="http://www.w3.org/2000/svg" xmlns:xlink="http://www.w3.org/1999/xlink" xml:space="preserve" xmlns:serif="http://www.serif.com/" style="fill-rule:evenodd;clip-rule:evenodd;stroke-linejoin:round;stroke-miterlimit:2;">
    <g transform="matrix(5.02056e-17,-0.81992,0.81992,5.02056e-17,-386.34,180.573)">
        <path d="M218.608,945.598C213.934,920.47 197.58,896.835 173.903,887.457C153.279,879.288 129.205,882.2 109.452,872.095C82.332,858.223 72.115,825.063 65.874,795.145C59.633,765.228 53.001,732.132 28.73,713.689C20.075,707.112 9.91,703.051 0,698.511L0,1081L165.214,1081C180.851,1061.99 195.946,1042.28 206.5,1020.03C217.448,996.956 223.283,970.726 218.608,945.598Z" style="fill:rgb(215,184,154);fill-rule:nonzero;"/>
    </g>
    <g transform="matrix(5.02056e-17,-0.81992,0.81992,5.02056e-17,-386.34,180.573)">
        <clipPath id="_clip1">
            <rect x="0" y="1" width="1920" height="1080"/>
        </clipPath>
        <g clip-path="url(#_clip1)">
            <path d="M-1.57,822.857C-11.151,822.857 -20.675,820.762 -29.276,818.866L-28.05,813.292C-17.273,815.664 -6.127,818.108 4.812,816.775C13.949,815.652 25.382,810.836 30.073,800.683C33.512,793.238 32.673,784.801 31.786,775.871C31.133,769.321 30.46,762.548 31.517,755.909C33.709,742.129 42.742,731.398 51.479,721.02C55.474,716.275 59.605,711.367 62.952,706.292C77.154,684.766 78.768,654.896 66.968,631.969C64.858,627.865 62.294,623.85 59.816,619.967C56.85,615.32 53.781,610.513 51.343,605.367C44.115,590.107 42.827,573.387 41.982,554.69L41.935,553.632C41.205,537.406 40.45,520.628 34.255,505.809C27.367,489.326 13.705,477.972 -0.549,476.883L-0.114,471.192C16.257,472.442 31.815,485.166 39.523,503.607C46.106,519.36 46.884,536.652 47.638,553.375L47.685,554.435C48.502,572.504 49.728,588.625 56.502,602.926C58.787,607.745 61.756,612.397 64.627,616.896C67.176,620.89 69.813,625.017 72.044,629.357C84.957,654.447 83.258,685.881 67.717,709.436C64.185,714.79 59.946,719.826 55.846,724.695C47.232,734.927 39.097,744.593 37.155,756.807C36.214,762.718 36.85,769.117 37.466,775.308C38.39,784.607 39.346,794.219 35.254,803.074C30.509,813.351 19.111,820.77 5.508,822.44C3.154,822.73 0.79,822.857 -1.57,822.857Z" style="fill:rgb(180,106,72);fill-rule:nonzero;"/>
        </g>
    </g>
</svg>
