<?xml version="1.0" encoding="UTF-8" standalone="no"?>
<!DOCTYPE svg PUBLIC "-//W3C//DTD SVG 1.1//EN" "http://www.w3.org/Graphics/SVG/1.1/DTD/svg11.dtd">
<svg width="100%" height="100%" viewBox="0 0 100 233" version="1.1" xmlns="http://www.w3.org/2000/svg" xmlns:xlink="http://www.w3.org/1999/xlink" xml:space="preserve" xmlns:serif="http://www.serif.com/" style="fill-rule:evenodd;clip-rule:evenodd;stroke-linejoin:round;stroke-miterlimit:2;">
    <g transform="matrix(1.73687,0,0,1.73687,-707.364,-515.75)">
        <g>
            <path d="M461.465,310.507C459.191,304.285 453.364,303.489 446.924,305.172C446.638,305.241 446.434,305.607 446.531,305.931C443.147,306.668 439.895,308.267 437.134,310.544C436.541,309.459 432.95,303.87 430.349,301.303C420.485,291.466 402.763,299.555 409.691,325.661C411.727,333.342 418.848,346.507 427.347,353.361C427.338,353.63 427.331,353.849 427.436,354.058C427.63,354.417 428.07,354.586 428.478,354.398C429.385,354.672 430.531,353.805 433.017,352.089C443.261,345.019 455.868,336.971 460.836,325.351C461.012,325.293 461.172,325.192 461.263,325.022C466.27,315.781 462.99,310.584 461.465,310.507ZM437.741,312.021L437.712,312.028L437.739,312.021C437.846,311.531 437.632,311.375 437.352,310.946C437.626,311.359 437.847,311.536 437.741,312.021ZM437.2,310.644C437.199,310.642 437.198,310.64 437.196,310.637L437.197,310.637L437.2,310.644ZM437.121,310.708C436.389,311.399 436.869,312.073 437.531,312.042C436.868,312.078 436.385,311.384 437.121,310.708ZM454.578,305.928C455.126,306.057 455.596,306.212 456.147,306.473C455.629,306.254 455.11,306.074 454.578,305.928Z" style="fill:rgb(221,166,129);fill-rule:nonzero;"/>
            <path d="M431.172,407.117C430.864,407.19 430.555,407.252 430.241,407.295C429.218,407.363 428.878,407.187 428.536,406.942C428.306,406.72 428.185,406.575 427.977,406.093C427.394,404.326 427.739,402.034 428.278,400.247C431.392,399.746 430.567,394.437 428.136,395.663C427.486,395.99 426.825,397.271 426.515,397.929C424.336,397.039 424.526,393.7 425.383,391.515C425.476,391.274 425.414,391.018 425.275,390.808C427.749,389.223 428.964,388.12 430.883,386.049C435.957,380.589 444.046,369.948 436.743,368.449C431.219,367.315 424.979,382.371 422.695,387.9C422.271,385.185 418.953,367.448 413.611,366.352C412.573,366.139 411.383,366.516 410.689,367.3C409.775,368.337 409.657,369.537 409.807,370.972C410.433,376.633 417.618,387.482 420.299,390.699C419.159,393.921 418.728,397.846 415.586,398.559C412.651,391.2 406.761,400.986 413.649,400.912C413.743,403.081 412.541,403.489 410.267,403.143C410.233,403.137 410.199,403.131 410.164,403.125C409.839,403.062 409.56,403.046 409.256,403.209C408.982,403.356 408.772,403.61 408.676,403.91C408.496,404.493 408.83,405.246 409.461,405.395C413.641,406.366 416.453,404.584 416.084,400.58C419.923,399.6 420.759,395.578 421.813,392.132C422.398,392.395 422.834,392.604 423.339,392.313C422.645,395.228 422.954,398.4 425.782,399.738C421.643,412.236 433.61,411.421 432.848,408.161C432.68,407.423 431.911,406.938 431.172,407.117ZM412.924,374.572C412.377,373.12 411.73,371.126 411.925,369.595C412.01,369.191 412.084,369.066 412.211,368.888C412.454,368.645 412.72,368.539 413.091,368.57C413.291,368.621 413.444,368.67 413.803,368.948C416.943,371.836 419.057,382.889 419.934,387.2C417.45,383.641 414.511,378.68 412.924,374.572ZM412.715,398.595C412.734,398.536 412.757,398.466 412.785,398.413C412.835,398.474 412.856,398.496 412.958,398.672C412.877,398.65 412.796,398.624 412.715,398.595ZM437.648,371.583C437.842,375.255 431.412,382.391 428.856,385.012C426.986,386.918 426.306,387.462 424.065,388.76C432.775,367.585 437.303,369.19 437.648,371.583Z" style="fill:rgb(221,166,129);fill-rule:nonzero;"/>
        </g>
        <g>
            <path d="M424.983,299.106C424.999,299.111 425.014,299.117 425.029,299.122C425.016,299.117 424.995,299.11 424.983,299.106Z" style="fill-rule:nonzero;"/>
            <path d="M437.762,309.679C431.322,297.032 418.289,292.658 411.919,301.824C401.404,316.963 414.205,342.417 427.954,354.748C426.004,364.695 424.112,374.657 422.212,384.615C419.699,365.878 408.086,360.255 411.011,373.83C412.181,379.278 415.273,385.818 419.552,390.303C419.428,390.705 419.626,391.139 420.181,391.232C419.866,391.558 419.87,392.026 420.384,392.367C419.372,394.951 418.141,398.22 416.01,399.069C415.577,398.051 414.737,396.898 413.649,396.675C413.301,396.609 412.836,396.67 412.458,396.946C411.03,398.001 410.735,401.524 414.66,400.811C414.17,403.251 410.17,404.244 407.79,404.758C407.446,404.877 407.248,405.197 407.265,405.538C407.293,405.931 407.669,406.317 408.088,406.256C410.367,405.92 413.071,405.142 414.794,403.625C415.73,402.801 416.426,401.583 416.33,400.328C417.504,399.839 418.663,398.98 419.933,396.427C417.156,410.765 413.265,429.905 413.265,429.905C413.194,430.289 413.435,430.669 413.825,430.749C414.222,430.831 414.572,430.572 414.672,430.194C416.949,421.353 420.504,402.102 422.12,393.123C422.584,393.238 423.725,393.397 424.109,393.102C423.914,395.274 424.669,398.274 426.448,399.405C424.324,403.373 425.216,410.285 431.58,408.864C431.758,408.822 431.924,408.653 432.005,408.496C432.196,408.128 432.045,407.677 431.682,407.49C431.46,407.377 431.28,407.412 431.043,407.462C430.594,407.545 430.143,407.587 429.688,407.567C428.815,407.479 428.306,407.209 427.822,406.692C427.645,406.477 427.495,406.245 427.365,405.997C427.19,405.621 427.069,405.226 426.982,404.821C426.661,403.006 427.058,401.114 427.769,399.842C429.182,399.904 430.701,398.679 430.663,398.158C430.607,397.313 428.567,396.745 427.097,398.448C425.76,397.695 424.617,394.393 425.445,391.988C425.491,391.858 425.436,391.685 425.368,391.577C425.338,391.532 425.297,391.498 425.256,391.464C425.799,391.026 425.588,390.148 424.717,390.143C429.373,386.563 433.453,383.14 436.486,378.325C438.02,375.89 440.475,371.053 438.386,369.068C438.125,368.822 437.714,368.645 437.407,368.582C436.856,368.469 436.277,368.584 435.751,368.772C430.35,370.723 426.232,382.481 423.03,388.051C425.398,374.833 426.82,366.805 429.128,354.85C429.961,355.069 435.571,351.616 436.308,351.136C441.055,348.058 447.551,342.728 451.436,339.216C481.976,311.466 452.843,294.255 437.762,309.679ZM413.057,398.712C413.1,398.599 413.237,398.275 413.338,398.209C413.721,398.288 414.257,399.128 414.414,399.487C412.79,399.69 412.893,399.258 413.057,398.712ZM420.682,389.852C412.35,381.385 409.449,365.435 413.631,368.149C418.595,371.688 420.775,382.649 421.072,389.909C420.942,389.891 420.812,389.872 420.682,389.852ZM434.384,370.949C434.286,371.034 434.268,371.045 434.389,370.944C434.43,370.908 434.425,370.912 434.393,370.941C435.387,370.114 436.045,369.839 436.564,369.713C436.963,369.643 437.133,369.669 437.336,369.725C437.511,369.797 437.595,369.855 437.713,369.979C437.847,370.152 437.936,370.309 438.021,370.672C438.115,371.253 438.047,371.744 438.073,371.538C437.676,376.568 432.113,382.628 428.261,385.948C428.392,385.851 426.737,387.277 423.699,389.604C427.135,383.753 429.809,374.97 434.384,370.949ZM422.862,391.559C423.388,391.598 423.914,391.619 424.44,391.621C424.341,391.815 424.333,391.931 424.278,392.141C423.946,391.65 423.505,391.937 422.531,391.738C422.679,391.717 422.739,391.653 422.862,391.559ZM446.272,341.968C446.313,341.931 446.355,341.895 446.396,341.858C441.404,346.151 435.192,351 429.061,353.634C428.865,353.717 428.726,353.876 428.667,354.065C420.76,346.985 415.022,337.604 411.414,327.777C406.187,313.543 410.883,294.3 424.984,299.106C424.958,299.097 424.931,299.087 424.905,299.076C430.863,301.189 433.538,305.761 436.497,311.264C436.832,311.886 437.947,311.863 438.173,310.947C438.176,310.945 439.151,309.984 439.602,309.597C454.64,297.039 480.354,312.593 446.272,341.968Z" style="fill-rule:nonzero;"/>
            <path d="M458.607,307.271C458.612,307.275 458.617,307.278 458.623,307.282C458.613,307.275 458.606,307.271 458.607,307.271Z" style="fill-rule:nonzero;"/>
            <path d="M440.13,332.185C439.973,332.239 439.817,332.291 439.657,332.33C439.553,332.346 439.435,332.362 439.333,332.34C438.739,331.429 441.016,325.831 441.213,324.693C441.26,324.428 441.188,324.116 440.965,323.943C440.638,323.684 440.278,323.464 439.931,323.231C439.687,323.064 439.445,322.906 439.2,322.743C439.051,322.645 438.903,322.543 438.747,322.458C438.368,322.252 437.881,322.427 437.692,322.802C437.469,323.23 437.303,323.688 437.128,324.137C436.882,324.786 436.639,325.439 436.389,326.087C436.114,326.801 435.826,327.509 435.51,328.207C434.007,331.512 432.679,332.238 432.923,328.175C432.922,328.184 432.921,328.193 432.921,328.202C432.922,328.19 432.923,328.178 432.924,328.166C432.927,328.115 432.93,328.064 432.934,328.013C432.934,328.013 432.942,326.27 434.463,319.977C434.714,318.935 435.215,317.774 434.292,317.585C433.906,317.506 433.58,317.758 433.479,318.121C432.677,321.038 430.673,326.885 428.442,328.941C428.251,329.101 428.051,329.244 427.831,329.361C427.724,329.406 427.616,329.444 427.505,329.473C427.415,329.486 427.325,329.492 427.234,329.493C427.152,329.483 427.072,329.468 426.993,329.448C425.871,328.966 425.974,326.295 426.054,325.077C426.544,318.569 428.387,316.252 427.072,315.982C426.637,315.893 426.459,316.183 426.322,316.578C424.898,320.639 421.218,328.608 419.959,328.686C419.86,328.6 419.798,328.436 419.754,328.314C419.649,328.022 419.326,327.854 419.024,327.954C417.986,328.304 419.405,331.402 421.621,328.78C422.892,327.293 424.288,324.398 425.102,322.627C423.633,332.402 428.279,333.032 431.654,326.652C431.485,327.939 431.28,330 431.784,331.194C432.415,332.704 433.953,332.665 434.883,331.868C436.507,330.475 437.65,327.037 438.645,324.531C438.674,324.457 438.703,324.383 438.732,324.31C439.317,324.719 439.311,324.71 439.54,324.869C438.803,327.509 436.088,333.247 439.05,333.855C439.933,334.03 441.398,333.581 441.086,332.656C440.958,332.272 440.517,332.042 440.13,332.185Z" style="fill-rule:nonzero;"/>
            <path d="M432.931,328.084C432.929,328.111 432.927,328.138 432.925,328.164C432.922,328.202 432.928,328.122 432.931,328.084Z" style="fill-rule:nonzero;"/>
            <path d="M443.116,332.227C442.183,332.036 441.893,333.45 442.826,333.641C443.212,333.72 443.599,333.465 443.678,333.079C443.757,332.693 443.502,332.306 443.116,332.227Z" style="fill-rule:nonzero;"/>
            <path d="M434.384,370.949C434.387,370.946 434.39,370.944 434.393,370.941L434.384,370.949Z" style="fill-rule:nonzero;"/>
            <path d="M431.71,374.069C431.717,374.058 431.725,374.048 431.732,374.037L431.71,374.069Z" style="fill-rule:nonzero;"/>
            <path d="M438.066,371.613C438.066,371.615 438.066,371.618 438.065,371.62C438.066,371.619 438.066,371.612 438.066,371.613Z" style="fill-rule:nonzero;"/>
            <path d="M412.36,313.414C412.359,313.419 412.359,313.423 412.358,313.428C412.487,311.658 412.78,309.9 413.352,308.221C413.352,308.223 413.351,308.224 413.351,308.226C414.231,305.677 415.693,303.599 418.077,302.29C418.314,302.159 418.146,301.73 417.816,301.894C410.201,306.132 411.14,318.791 413.533,327.147C413.568,327.271 413.716,327.335 413.834,327.295C413.96,327.249 414.017,327.118 413.982,326.995C412.814,322.957 412.06,317.882 412.36,313.414Z" style="fill-rule:nonzero;"/>
            <path d="M424.494,302.472C424.494,302.472 426.344,302.975 428.645,305.625C428.639,305.618 428.632,305.612 428.625,305.606C430.452,307.74 431.836,310.243 433.228,312.318C433.402,312.582 433.804,312.317 433.629,312.051C431.375,308.696 428.905,303.781 424.879,302.119C424.484,301.958 422.938,301.427 422.85,301.857C422.825,301.976 422.905,302.12 423.034,302.135C423.287,302.165 423.534,302.208 423.779,302.262C424.002,302.315 424.22,302.382 424.436,302.453C424.435,302.453 424.488,302.47 424.494,302.472Z" style="fill-rule:nonzero;"/>
            <path d="M424.435,302.453C424.465,302.464 424.461,302.462 424.435,302.453Z" style="fill-rule:nonzero;"/>
            <path d="M457.527,312.389C457.531,312.398 457.536,312.408 457.541,312.417C457.534,312.403 457.534,312.404 457.527,312.389Z" style="fill-rule:nonzero;"/>
            <path d="M453.788,308.949C454.685,309.256 455.277,309.691 455.277,309.691C456.163,310.326 456.853,311.078 457.526,312.39C457.506,312.345 457.521,312.38 457.543,312.423C457.542,312.421 457.541,312.419 457.54,312.418C457.687,312.724 457.81,313.263 458.109,313.167C458.223,313.126 458.304,312.985 458.257,312.867C457.54,311.163 456.546,309.798 454.889,308.912C454.181,308.528 453.384,308.302 452.576,308.182C451.737,308.059 450.879,308.078 450.037,308.172C445.451,308.684 439.801,312.289 440.085,312.719C440.154,312.823 440.305,312.858 440.41,312.786C441.621,311.935 442.895,311.174 444.217,310.515C444.215,310.516 444.213,310.517 444.21,310.518C444.235,310.506 444.24,310.504 444.264,310.492C444.263,310.492 444.263,310.493 444.263,310.493C447.147,309.093 450.773,307.946 453.788,308.949Z" style="fill-rule:nonzero;"/>
            <path d="M444.216,310.513C444.233,310.507 444.247,310.5 444.262,310.49C444.243,310.499 444.236,310.503 444.216,310.513Z" style="fill-rule:nonzero;"/>
            <path d="M457.941,321.592C457.497,322.602 456.994,323.586 456.45,324.549C453.591,329.597 449.132,334.353 445.379,338.866C445.165,339.118 445.54,339.409 445.728,339.182C450.42,333.544 455.51,328.282 458.36,321.805C458.503,321.495 458.054,321.328 457.941,321.592Z" style="fill-rule:nonzero;"/>
            <path d="M418.627,336.313C418.398,336.042 418.054,336.357 418.231,336.574C418.279,336.633 428.036,348.644 428.111,348.659C429.035,348.849 428.085,347.921 418.627,336.313Z" style="fill-rule:nonzero;"/>
            <path d="M437.877,344.074C435.874,345.426 433.844,346.609 431.71,347.763C431.465,347.898 431.659,348.327 431.967,348.158C434.074,347.015 436.154,345.818 438.144,344.475C438.253,344.403 438.284,344.252 438.212,344.143C438.141,344.033 437.986,343.999 437.877,344.074Z" style="fill-rule:nonzero;"/>
        </g>
    </g>
</svg>
