<?xml version="1.0" encoding="UTF-8" standalone="no"?>
<!DOCTYPE svg PUBLIC "-//W3C//DTD SVG 1.1//EN" "http://www.w3.org/Graphics/SVG/1.1/DTD/svg11.dtd">
<svg width="100%" height="100%" viewBox="0 0 614 604" version="1.1" xmlns="http://www.w3.org/2000/svg" xmlns:xlink="http://www.w3.org/1999/xlink" xml:space="preserve" xmlns:serif="http://www.serif.com/" style="fill-rule:evenodd;clip-rule:evenodd;stroke-linejoin:round;stroke-miterlimit:2;">
    <g transform="matrix(2.55135e-16,4.16667,-4.16667,2.55135e-16,617.912,-1215.31)">
        <path d="M323.973,15.195C326.498,23.91 325.787,33.181 326.321,42.24C326.855,51.298 329.031,60.955 335.794,67.005C346.381,76.476 364.229,73.789 374.518,83.585C382.42,91.108 383.08,103.222 386.625,113.541C391.745,128.447 404.076,140.687 419.018,145.7C424.649,147.588 430.602,148.432 436.535,148.282L436.535,0.717L314.074,0.717C318.818,4.023 322.329,9.52 323.973,15.195Z" style="fill:rgb(180,106,72);fill-rule:nonzero;"/>
    </g>
    <g transform="matrix(2.55135e-16,4.16667,-4.16667,2.55135e-16,617.912,-1215.31)">
        <path d="M446.905,123.827C434.416,123.827 421.755,117.782 414.809,107.394C410.646,101.169 408.378,93.776 406.186,86.625C403.124,76.639 400.231,67.207 392.623,61.126C383.188,53.584 369.68,54.079 356.657,55.231C342.435,56.488 328.822,56.965 318.555,49.065C311.084,43.318 307.306,34.216 304.849,26.927C304.227,25.084 303.642,23.221 303.056,21.358C301.129,15.228 299.137,8.889 295.806,3.405C292.065,-2.754 285.019,-9.328 276.572,-9.266L276.555,-12.153L276.669,-12.153C286.3,-12.153 294.138,-4.901 298.273,1.907C301.785,7.69 303.831,14.198 305.809,20.492C306.389,22.336 306.968,24.18 307.584,26.005C309.911,32.907 313.46,41.504 320.315,46.778C329.758,54.042 342.772,53.563 356.401,52.356C370.012,51.153 384.156,50.662 394.425,58.871C402.729,65.509 405.889,75.813 408.945,85.779C411.078,92.73 413.281,99.918 417.208,105.79C426.172,119.196 445.452,124.769 460.185,118.211L461.359,120.848C456.817,122.869 451.874,123.826 446.905,123.827Z" style="fill:rgb(223,184,150);fill-rule:nonzero;"/>
    </g>
</svg>
