<?xml version="1.0" encoding="UTF-8" standalone="no"?>
<!DOCTYPE svg PUBLIC "-//W3C//DTD SVG 1.1//EN" "http://www.w3.org/Graphics/SVG/1.1/DTD/svg11.dtd">
<svg width="100%" height="100%" viewBox="0 0 500 562" version="1.1" xmlns="http://www.w3.org/2000/svg" xmlns:xlink="http://www.w3.org/1999/xlink" xml:space="preserve" xmlns:serif="http://www.serif.com/" style="fill-rule:evenodd;clip-rule:evenodd;stroke-linejoin:round;stroke-miterlimit:2;">
    <g id="Shape-Mask" serif:id="Shape Mask" transform="matrix(0.373269,0,0,0.373269,-775.74,-152.712)">
        <path d="M2137.21,1726.99C2060.59,1343.73 2056.76,965.976 2136.69,594.564C2152.88,519.332 2223.74,460.177 2314.9,444.886C2601.63,396.786 2890.76,397.587 3182.18,444.955C3275.67,460.15 3347.95,521.576 3362.28,598.94C3433.75,984.544 3437.85,1362.2 3364.72,1730.74C3349.36,1808.16 3276.02,1869.26 3182.03,1883.22C2903.94,1924.52 2617.28,1921.39 2323.35,1880.69C2227.62,1867.43 2152.94,1805.66 2137.21,1726.99Z" style="fill:white;fill-rule:nonzero;"/>
        <g id="Shape" transform="matrix(0.477319,0,0,0.477319,1105.98,-403.261)">
            <path d="M2159.48,2471.48C2149.74,2494.32 2139.96,2517.09 2130.17,2539.91C2127.36,2546.55 2124.68,2553.91 2121.91,2561.62C2124.85,2562.56 2127.97,2563.35 2131.16,2564.04C2206.24,2580.61 2265.62,2503.49 2302.19,2442.89C2289.08,2445.3 2276.11,2447.43 2264.22,2449.95C2229.34,2457.43 2194.57,2464.93 2159.48,2471.48ZM2123.41,2460.95C2101.8,2413.7 2077.31,2366.46 2057.43,2318.02C2033.74,2417.48 2034.71,2503.95 2086.69,2544.08C2089.7,2538.11 2092.56,2532.29 2094.97,2526.73C2104.42,2504.76 2113.92,2482.85 2123.41,2460.95ZM2181.97,2419.09C2180.4,2422.81 2178.79,2426.45 2177.23,2430.11C2202.45,2423.8 2227.79,2417.76 2253.17,2411.8C2277.15,2406.17 2304.45,2396.58 2330.77,2392.61C2348.51,2360.39 2365.87,2327.96 2382.21,2295.08C2328.28,2315.79 2270.64,2329.71 2215.26,2340.89C2204.15,2366.93 2193.02,2393.03 2181.97,2419.09ZM2147.26,2406.16C2157.69,2382.32 2168.06,2358.46 2178.43,2334.6C2153.29,2280.33 2127.67,2226.2 2105.07,2170.78C2091.05,2206.3 2078.46,2242.13 2068.3,2276.95C2095.91,2322.24 2118.16,2371.66 2141.39,2419.7C2143.34,2415.21 2145.25,2410.64 2147.26,2406.16ZM2494.09,1916.28C2459.29,1923.9 2424.04,1929.85 2388.61,1933.32C2355.77,2013.19 2321.52,2092.46 2287.56,2171.8C2269.94,2212.89 2252.39,2253.95 2234.83,2295.06C2294.07,2278.55 2351.14,2257.26 2409.43,2237.84C2434.11,2183.2 2455.32,2127.24 2470.53,2069.33C2483.71,2019.12 2491.92,1967.85 2494.09,1916.28ZM2245.34,2180.84C2220.49,2128.39 2194.15,2076.13 2171.53,2022.51C2153.69,2058.32 2135.68,2097.01 2119.02,2136.54C2147.63,2186.01 2173.21,2237.08 2198.62,2288.29C2214.22,2252.48 2229.81,2216.66 2245.34,2180.84ZM2297.11,2061.63C2268.59,2018.92 2245.63,1970.57 2225.02,1922.32C2213.47,1942.46 2201.11,1965.07 2188.42,1989.46C2215.74,2038.1 2239.32,2089.16 2263.24,2139.62C2274.53,2113.63 2285.76,2087.62 2297.11,2061.63ZM2359.93,1919.3C2390.81,1851.09 2419.26,1781.14 2451.73,1713.52C2421.91,1694.66 2380.04,1723.49 2342.54,1761.41C2316.16,1788.06 2291.95,1819.19 2275.66,1841.49C2267.43,1852.74 2256.35,1869.56 2243.52,1890.8C2268.77,1934.81 2293.52,1980.8 2311.83,2027.78C2327.65,1991.53 2343.64,1955.38 2359.93,1919.3ZM2494.59,1882.06C2494.18,1848.73 2491.16,1815.36 2485.26,1782.25C2481.74,1762.65 2476.9,1747.52 2471.03,1736.18C2448.74,1792.99 2423.83,1849 2400.24,1905.23C2431.2,1895.76 2462.78,1888.26 2494.59,1882.06Z" style="fill:rgb(238,219,203);"/>
        </g>
    </g>
</svg>
