<?xml version="1.0" encoding="UTF-8" standalone="no"?>
<!DOCTYPE svg PUBLIC "-//W3C//DTD SVG 1.1//EN" "http://www.w3.org/Graphics/SVG/1.1/DTD/svg11.dtd">
<svg width="100%" height="100%" viewBox="0 0 500 413" version="1.1" xmlns="http://www.w3.org/2000/svg" xmlns:xlink="http://www.w3.org/1999/xlink" xml:space="preserve" xmlns:serif="http://www.serif.com/" style="fill-rule:evenodd;clip-rule:evenodd;stroke-linejoin:round;stroke-miterlimit:2;">
    <g transform="matrix(6.34033e-17,-1.03545,-1.03545,-6.34033e-17,500.909,1987.94)">
        <path d="M1521.47,1C1544.38,16.061 1563.79,36.494 1573.67,61.842C1589.29,101.888 1579.81,149.338 1599.77,187.408C1620.29,226.546 1665.6,244.621 1707.41,258.906C1749.23,273.191 1794.73,289.446 1817.74,327.177C1836.43,357.845 1836.17,396.736 1852.2,428.877C1865.63,455.799 1891.25,475.261 1920,483.839L1920,1L1521.47,1Z" style="fill:rgb(221,166,129);fill-rule:nonzero;"/>
    </g>
    <g transform="matrix(6.34033e-17,-1.03545,-1.03545,-6.34033e-17,500.909,1987.94)">
        <clipPath id="_clip1">
            <rect x="0" y="1" width="1920" height="1080"/>
        </clipPath>
        <g clip-path="url(#_clip1)">
            <path d="M1955.17,381.219C1922.61,379.517 1893.12,351.465 1889.42,318.689C1888.69,312.166 1888.86,305.562 1889.02,299.175C1889.22,291.598 1889.4,284.44 1888.22,277.342C1884.29,253.714 1865.84,235.266 1848.31,220.334C1846.26,218.593 1844.19,216.858 1842.12,215.118C1825.34,201.02 1807.99,186.443 1798.59,166.155C1788.04,143.382 1789.5,117.467 1791.94,97.433C1792.7,91.17 1793.65,84.827 1794.57,78.69C1796.95,62.653 1799.43,46.068 1798.78,29.796C1797.78,4.441 1788.43,-16.682 1773.13,-28.156L1776.56,-32.722C1793.23,-20.213 1803.41,2.492 1804.49,29.571C1805.15,46.379 1802.64,63.233 1800.21,79.532C1799.3,85.631 1798.36,91.937 1797.61,98.125C1795.25,117.406 1793.83,142.291 1803.77,163.755C1812.63,182.889 1829.49,197.052 1845.8,210.747C1847.88,212.496 1849.95,214.24 1852.01,215.989C1870.33,231.588 1889.63,250.966 1893.85,276.406C1895.12,284.042 1894.92,291.809 1894.73,299.32C1894.57,305.515 1894.41,311.919 1895.1,318.051C1898.49,348.175 1925.57,373.956 1955.46,375.519L1955.17,381.219Z" style="fill:rgb(180,106,72);fill-rule:nonzero;"/>
        </g>
    </g>
</svg>
