<?xml version="1.0" encoding="UTF-8" standalone="no"?>
<!DOCTYPE svg PUBLIC "-//W3C//DTD SVG 1.1//EN" "http://www.w3.org/Graphics/SVG/1.1/DTD/svg11.dtd">
<svg width="100%" height="100%" viewBox="0 0 500 366" version="1.1" xmlns="http://www.w3.org/2000/svg" xmlns:xlink="http://www.w3.org/1999/xlink" xml:space="preserve" xmlns:serif="http://www.serif.com/" style="fill-rule:evenodd;clip-rule:evenodd;stroke-linejoin:round;stroke-miterlimit:2;">
    <g id="Shape" transform="matrix(0.35285,0,0,0.35285,-197.203,-305.449)">
        <path d="M1800.86,1856.6C1439.67,1915.89 1083.67,1918.85 733.651,1857C662.751,1844.47 607.003,1789.63 592.593,1719.1C547.263,1497.21 548.018,1273.47 592.657,1047.95C606.977,975.61 664.866,919.68 737.775,908.585C1101.17,853.284 1457.08,850.114 1804.4,906.703C1877.36,918.59 1934.94,975.339 1948.1,1048.08C1987.02,1263.27 1984.07,1485.1 1945.71,1712.55C1933.21,1786.64 1875,1844.42 1800.86,1856.6Z" style="fill:rgb(180,106,72);fill-rule:nonzero;"/>
        <g id="Shape1" serif:id="Shape" transform="matrix(0.643472,0.298799,-0.298799,0.643472,129.602,-489.326)">
            <path d="M3596.99,1512.33C3623.47,1510.02 3649.62,1512.4 3675.44,1517.69L3778.95,1271.47C3681.31,1256.56 3578.94,1272.18 3481.86,1295.37C3429.21,1307.91 3375.5,1323.5 3333.29,1357.36C3291.12,1391.16 3262.89,1447.68 3277.11,1499.85C3293.02,1558.07 3356.74,1600.23 3354.91,1660.5C3353.47,1706.74 3312.89,1742.03 3271.79,1763.37C3230.72,1784.63 3184.44,1799.34 3152.51,1832.84C3116.61,1870.47 3105.37,1926.56 3111.96,1978.11C3118.62,2029.69 3141.17,2077.79 3165.6,2123.7C3210.12,2207.47 3262.03,2287.28 3320.51,2361.91L3444.79,2066.29C3440.71,2061.67 3436.56,2057.03 3432.32,2052.43C3410.1,2028.16 3386.47,2000.48 3386.96,1967.65C3387.72,1922.67 3431.49,1892.88 3461.13,1859.01C3497.31,1817.71 3515.33,1761.05 3509.58,1706.44C3504.3,1656.18 3481.07,1601.56 3507.24,1558.43C3525.31,1528.53 3562.19,1515.3 3596.99,1512.33ZM3615.46,1476.98C3614.33,1477.62 3613.43,1478.07 3612.17,1478.4C3611.23,1478.65 3610.3,1478.9 3609.36,1479.14C3606.59,1479.88 3603.83,1480.62 3601.03,1481.21C3595.36,1482.39 3589.69,1483.57 3584.02,1484.76C3580.24,1485.55 3576.54,1482.54 3575.62,1479.07C3575.16,1477.38 3575.3,1475.76 3575.9,1474.13C3576.48,1472.55 3578.39,1470.43 3580.09,1469.98C3585.68,1468.5 3591.27,1467.02 3596.86,1465.54C3600.22,1464.65 3603.58,1463.88 3606.97,1463.17C3610.88,1462.35 3615.22,1462.38 3618.59,1464.79C3620.63,1466.24 3621.64,1469.71 3620.45,1471.96C3619.31,1474.11 3617.57,1475.79 3615.46,1476.98ZM3638.88,1433.32C3634.95,1433.64 3630.93,1434.21 3626.99,1434.08C3623.57,1433.97 3620.16,1433.81 3616.75,1433.67C3614.5,1433.59 3612.44,1432.03 3611.07,1430.36C3609.66,1428.65 3609.26,1426.34 3609.44,1424.2C3609.62,1422.07 3611.07,1419.79 3612.75,1418.53C3614.61,1417.14 3616.66,1416.82 3618.92,1416.91C3622.26,1417.04 3625.62,1417.1 3628.96,1417.31C3630.61,1417.41 3632.28,1417.8 3633.91,1418.06C3635.56,1418.33 3637.21,1418.59 3638.86,1418.86C3642.49,1419.44 3645.16,1422.42 3645.16,1426.09C3645.17,1429.54 3642.5,1433.03 3638.88,1433.32ZM3659.13,1314.23C3664.02,1313.57 3668.97,1312.63 3673.91,1312.42C3676.35,1312.32 3678.79,1312.22 3681.23,1312.12C3684.81,1311.97 3689.24,1311.42 3692.57,1313.1C3695.55,1314.61 3697.73,1317.03 3698.18,1320.45C3698.6,1323.6 3697.27,1327.27 3694.55,1329.08C3691.31,1331.25 3687.64,1331.66 3683.86,1331.95C3681.33,1332.15 3678.81,1332.34 3676.28,1332.54C3670.63,1332.97 3664.83,1332.55 3659.16,1332.48C3656.74,1332.44 3654.44,1330.66 3652.97,1328.87C3651.72,1327.34 3651.21,1325.27 3651.2,1323.35C3651.2,1318.82 3654.57,1314.83 3659.13,1314.23ZM3621.64,1359.8C3628.35,1358.58 3635.04,1357.7 3641.82,1356.94C3645.2,1356.57 3648.57,1356.14 3651.95,1355.81C3653.3,1355.68 3654.71,1355.57 3656.06,1355.69C3659.14,1356.53 3659.6,1356.65 3657.45,1356.06C3657.92,1356.1 3658.39,1356.13 3658.87,1356.17C3660.52,1356.3 3662.18,1356.43 3663.83,1356.56C3667.72,1356.87 3670.62,1360.34 3671.26,1363.97C3671.87,1367.38 3669.48,1372.1 3665.99,1373.05C3664.41,1373.48 3662.82,1373.91 3661.24,1374.33C3660.79,1374.46 3660.34,1374.58 3659.88,1374.7C3661.65,1373.56 3661.23,1373.77 3658.63,1375.31C3657.25,1375.87 3656.04,1376.01 3654.65,1376.13C3651.26,1376.42 3647.86,1376.64 3644.47,1376.89C3637.63,1377.4 3630.88,1377.78 3624.02,1377.83C3621.44,1377.85 3619.33,1377.48 3617.2,1375.96C3615.26,1374.57 3614.21,1372.27 3613.8,1370C3612.92,1365 3616.95,1360.64 3621.64,1359.8ZM3385.14,1854.26C3382.91,1856.96 3380.2,1858.37 3376.77,1858.6C3372.96,1858.86 3369.77,1857.06 3368.11,1853.57C3366.6,1850.39 3366.5,1847.36 3367.81,1844.06C3368.34,1842.73 3368.98,1841.43 3369.56,1840.12C3371.1,1836.63 3373.36,1833.4 3375.41,1830.18C3378.76,1824.92 3382.27,1819.76 3385.7,1814.55C3388.34,1810.54 3394.3,1810.05 3398.12,1812.29C3401.95,1814.54 3404.37,1820.01 3402.17,1824.25C3399.3,1829.79 3396.49,1835.37 3393.54,1840.86C3391.74,1844.23 3390.01,1847.76 3387.72,1850.82C3386.86,1851.96 3386.05,1853.16 3385.14,1854.26ZM3355.07,1928.31C3353.88,1931.34 3352.3,1934.14 3350.77,1937.01C3350.09,1938.28 3349.41,1939.55 3348.73,1940.82C3348.23,1941.76 3347.73,1942.7 3347.19,1943.62C3346.18,1945.34 3344.83,1946.25 3343.05,1947.11C3339.67,1948.74 3334.77,1946.68 3333.57,1943.12C3332.78,1940.77 3332.73,1939.1 3333.43,1936.72C3333.64,1936.03 3333.87,1935.35 3334.09,1934.66C3334.56,1933.17 3335.03,1931.68 3335.5,1930.19C3336.44,1927.21 3337.31,1924.24 3338.6,1921.38C3341.2,1915.6 3343.8,1909.81 3346.4,1904.03C3348.34,1899.71 3353.08,1897.9 3357.48,1899.52C3361.84,1901.13 3363.62,1906.48 3362.01,1910.59L3355.07,1928.31ZM3548.02,1321.77C3554.77,1320.93 3561.53,1319.87 3568.31,1319.31C3569.89,1319.18 3571.48,1319.05 3573.07,1318.92C3575.38,1318.73 3577.94,1318.27 3580.23,1318.62C3582.18,1318.91 3584.24,1319.8 3586.12,1320.42C3588.33,1321.15 3589.78,1322.53 3591.25,1324.25C3592.77,1326.02 3592.36,1328.6 3591.19,1330.38C3590.85,1330.88 3590.54,1331.41 3590.16,1331.88C3589.07,1333.26 3587.59,1333.92 3586.06,1334.64C3584.18,1335.54 3582.34,1336.59 3580.26,1336.92C3576.95,1337.44 3573.38,1337.32 3570.02,1337.43C3562.71,1337.67 3555.36,1337.47 3548.05,1337.47C3544.09,1337.47 3541.21,1333.15 3541.2,1329.62C3541.19,1325.75 3544.09,1322.26 3548.02,1321.77ZM3400.74,1690.73C3401.77,1692.9 3402.96,1695.04 3403.27,1697.46C3403.49,1699.24 3403.45,1701.09 3403.54,1702.88C3403.76,1707.19 3404.16,1711.55 3403.98,1715.86C3403.83,1719.51 3403.63,1723.12 3403.1,1726.73C3402.84,1728.52 3402.61,1730.33 3402.3,1732.12C3401.44,1737.16 3397.97,1741.25 3392.6,1741.26C3387.35,1741.26 3383.59,1737.17 3382.95,1732.13C3382.7,1730.22 3382.59,1728.29 3382.41,1726.38C3382,1722.07 3382.07,1717.71 3382.13,1713.38C3382.18,1709.77 3382.77,1706.12 3383.14,1702.53C3383.31,1700.85 3383.39,1699.13 3383.66,1697.47C3384.09,1694.89 3385.29,1692.89 3386.49,1690.65C3387.99,1687.87 3390.33,1686 3393.59,1686C3396.82,1686 3399.39,1687.88 3400.74,1690.73ZM3451.54,1548.56C3455.04,1541.53 3458.49,1534.5 3462.28,1527.62C3463.17,1525.99 3464.04,1524.82 3465.66,1523.91C3467.14,1523.07 3468.78,1522.7 3470.49,1522.9C3472.65,1523.16 3474.36,1524.35 3475.74,1525.97C3477.4,1527.91 3477.87,1531.4 3476.7,1533.69C3473.12,1540.69 3469.23,1547.52 3465.37,1554.37C3464.34,1556.2 3463.21,1557.52 3461.29,1558.4C3459.48,1559.24 3457.38,1559.04 3455.55,1558.37C3451.92,1557.03 3449.79,1552.08 3451.54,1548.56ZM3356.83,1765.35C3361.16,1762.25 3366.85,1763.2 3370.18,1767.26C3373.59,1771.42 3372.06,1777.35 3368.29,1780.59C3364.27,1784.05 3362.59,1785.64 3358.79,1789.97C3355.74,1793.45 3352.88,1797.13 3350.16,1800.88C3347.45,1804.62 3344.69,1808.36 3342.09,1812.18C3340.7,1814.2 3339.54,1816.39 3338.13,1818.39C3336.55,1820.62 3333.94,1821.74 3331.68,1823.18C3327.81,1825.64 3323.45,1823.68 3322.43,1819.29C3321.64,1815.89 3320.92,1812.95 3322.03,1809.47C3322.82,1806.95 3323.9,1804.51 3324.99,1802.1C3327.29,1796.98 3330.01,1792.19 3333.41,1787.7C3339.89,1779.11 3348.1,1771.62 3356.83,1765.35ZM3280.87,1908C3283.21,1903.24 3286.16,1898.78 3289.55,1894.69C3296.48,1886.36 3305.3,1880.17 3315.13,1875.66C3319.41,1873.69 3324.61,1875.87 3326.82,1879.78C3328.98,1883.58 3328.31,1889.38 3324.36,1891.91C3322.41,1893.15 3320.52,1894.47 3318.71,1895.9C3317.8,1896.61 3316.91,1897.35 3316.04,1898.11C3315.91,1898.23 3315.12,1898.94 3314.62,1899.38C3314.37,1899.66 3313.14,1900.88 3312.98,1901.04C3312.2,1901.88 3311.44,1902.74 3310.65,1903.58C3309.17,1905.17 3307.72,1906.77 3306.36,1908.47C3305.01,1910.17 3303.73,1911.92 3302.53,1913.73C3301.9,1914.7 3301.29,1915.68 3300.67,1916.66C3300.54,1916.86 3300.06,1917.59 3299.7,1918.14C3298.7,1919.76 3297.84,1921.52 3297.04,1923.25C3296.29,1924.86 3295.7,1926.59 3294.59,1928C3293.97,1928.79 3293.26,1929.38 3292.51,1929.9C3292.27,1930.3 3291.65,1931.06 3291.49,1931.26C3290.68,1932.27 3289.64,1933.05 3288.64,1933.83C3285.07,1936.63 3279.72,1934.94 3278.01,1930.89C3277.47,1929.6 3276.94,1928.25 3276.78,1926.85C3276.75,1926.08 3276.78,1925.31 3276.8,1924.53C3275.41,1919.17 3278.55,1912.75 3280.87,1908ZM3271.47,1958.37C3275.84,1957.6 3279.79,1961.15 3280.49,1965.29C3281.84,1973.34 3283.18,1981.39 3284.53,1989.44C3285.21,1993.46 3286.01,1997.48 3286.56,2001.51C3286.81,2003.4 3286.81,2005.33 3286.88,2007.23C3286.99,2010.22 3287.29,2013.06 3286.19,2015.92C3284.18,2021.14 3277.05,2021.62 3273.77,2017.45C3271.93,2015.1 3271.49,2012.16 3270.75,2009.34C3270.26,2007.49 3269.69,2005.65 3269.38,2003.76C3268.72,1999.75 3268.31,1995.67 3267.77,1991.63C3266.7,1983.55 3265.63,1975.46 3264.56,1967.37C3263.97,1962.92 3267.18,1959.12 3271.47,1958.37ZM3439.33,1650.69C3436.01,1651.27 3431.63,1648.97 3430.63,1645.64C3429.71,1642.54 3429.66,1639.38 3429.44,1636.18C3429.23,1633.01 3429.14,1629.88 3429.2,1626.71L3429.54,1610.95C3429.63,1606.94 3433.86,1604.03 3437.5,1604.03C3441.26,1604.03 3445.2,1606.96 3445.48,1610.94C3445.84,1616.1 3446.2,1621.26 3446.56,1626.42C3446.78,1629.48 3446.77,1632.53 3446.71,1635.6L3446.63,1639.61C3446.61,1640.91 3446.73,1642.33 3446.41,1643.6C3445.89,1645.72 3445.1,1647.81 3443.2,1649.12C3442.03,1649.91 3440.72,1650.44 3439.33,1650.69ZM3527.12,1442.37C3526.42,1442.51 3525.71,1442.63 3525.01,1442.76C3523.77,1442.98 3522.55,1443.19 3521.29,1443.3C3518.79,1443.53 3516.3,1443.76 3513.8,1443.99C3508.63,1444.47 3503.46,1444.95 3498.29,1445.42C3492.61,1445.95 3487.85,1442.26 3486.86,1436.66C3485.92,1431.34 3490.32,1425.85 3495.62,1425.27C3500.78,1424.7 3505.93,1424.13 3511.09,1423.57L3518.57,1422.75C3519.91,1422.6 3521.25,1422.56 3522.6,1422.53C3523.23,1422.52 3523.86,1422.5 3524.49,1422.49C3526.81,1422.43 3528.44,1422.54 3530.65,1423.34C3533.84,1424.49 3536.12,1427.78 3536.56,1431.05C3536.98,1434.26 3535.64,1438.36 3532.74,1440.13C3530.82,1441.3 3529.34,1441.94 3527.12,1442.37ZM3510.63,1374.63C3512.04,1372.84 3514,1371.91 3516.18,1371.48C3521.56,1370.41 3526.93,1369.34 3532.31,1368.27C3534.95,1367.74 3537.59,1367.12 3540.27,1366.79C3542.27,1366.55 3544.01,1366.86 3545.94,1367.2C3547.62,1367.5 3549.3,1367.79 3550.86,1368.52C3554.03,1370.02 3555.97,1374.67 3553.21,1377.59C3550.61,1380.34 3546.69,1382.82 3543.03,1383.69C3540.32,1384.35 3537.58,1384.81 3534.83,1385.3C3529.35,1386.28 3523.88,1387.26 3518.4,1388.24C3513.74,1389.08 3509.66,1385.3 3508.9,1380.96C3508.52,1378.86 3509.34,1376.28 3510.63,1374.63ZM3432.41,1501.27C3436.58,1496.47 3440.62,1491.53 3444.93,1486.86C3447.47,1484.11 3450.38,1481.61 3453.09,1479.02C3454.2,1477.96 3455.27,1476.66 3456.52,1475.77C3458.45,1474.39 3460.89,1474.05 3463.15,1473.46C3465.42,1472.87 3468.15,1474.36 3469.47,1476.12C3471.01,1478.18 3471.03,1480.47 3470.3,1482.82C3469.68,1484.83 3469.18,1486.57 3467.76,1488.22C3466.42,1489.77 3464.74,1491.13 3463.26,1492.55C3460.99,1494.71 3458.79,1497.02 3456.39,1499.05C3451.61,1503.08 3446.53,1506.81 3441.62,1510.68C3439.01,1512.74 3435.17,1512.26 3432.92,1509.97C3430.72,1507.72 3430.24,1503.77 3432.41,1501.27ZM3348.52,1477.85C3345.67,1481.65 3340.22,1482.39 3336.27,1480.07C3332.09,1477.62 3330.65,1472.75 3332.28,1468.29C3338.1,1452.34 3347.27,1437.93 3355.95,1423.41C3358.55,1419.07 3365.17,1418.74 3369.07,1421.03C3373.19,1423.44 3375.55,1429.11 3373.34,1433.64C3365.92,1448.83 3358.7,1464.28 3348.52,1477.85ZM3392.94,1492.32C3391.82,1493.92 3390.74,1495.54 3389.71,1497.19C3389.51,1497.52 3389.31,1497.85 3389.11,1498.17C3389.05,1498.29 3388.99,1498.38 3388.89,1498.55C3388.5,1499.29 3388.08,1500.01 3387.69,1500.75C3385.92,1504.08 3384.42,1507.51 3382.93,1510.97C3381.45,1514.43 3380.19,1517.93 3378.55,1521.32C3376.61,1525.32 3374.47,1529.54 3370.29,1531.6C3368.12,1532.66 3365.71,1531.52 3364.23,1529.92C3360.9,1526.34 3361.22,1520.38 3361.64,1515.91C3362.07,1511.49 3363.56,1507.18 3365.16,1503.04C3368.26,1495.02 3372.79,1487.38 3377.78,1480.39C3380.91,1476.01 3387.24,1475.87 3391.32,1478.79C3395.72,1481.94 3395.82,1488.2 3392.94,1492.32ZM3421.02,1395.64C3417.43,1397.29 3413.34,1395.11 3411.8,1391.76C3411.06,1390.16 3411.15,1387.95 3411.82,1386.36C3412.61,1384.48 3413.96,1383.51 3415.67,1382.56L3434.46,1372.11C3436.48,1370.98 3438.28,1369.95 3440.66,1369.77C3442.4,1369.65 3443.96,1369.3 3445.64,1368.88C3448.84,1368.07 3452.45,1366.77 3455.78,1367.53C3457.51,1367.93 3458.75,1369.58 3457.99,1371.37C3456.52,1374.83 3453.09,1377.15 3450.3,1379.47C3449.66,1380 3449.02,1380.53 3448.38,1381.06C3448.34,1381.11 3448.3,1381.14 3448.17,1381.3C3447.93,1381.6 3447.68,1381.89 3447.43,1382.17C3445.53,1384.35 3443.27,1385.41 3440.72,1386.58C3434.15,1389.6 3427.58,1392.62 3421.02,1395.64ZM3426.28,1451.75C3423.94,1451.55 3421.89,1450.11 3420.45,1448.35C3419.1,1446.71 3418.51,1444.1 3418.78,1442.03C3419.04,1440 3420.36,1437.33 3422.18,1436.22C3426.96,1433.27 3431.74,1430.33 3436.53,1427.38C3437.67,1426.68 3438.81,1425.98 3439.95,1425.28C3441.59,1424.27 3443.34,1422.92 3445.12,1422.21C3446.42,1421.69 3447.83,1421.34 3449.16,1420.91C3451.32,1420.21 3453.46,1419.34 3455.78,1419.7C3460.45,1420.44 3462.72,1424.93 3461.26,1429.22C3460.64,1431.04 3459.3,1432.15 3457.99,1433.44C3456.66,1434.73 3455.29,1436.45 3453.81,1437.51C3451.66,1439.06 3449.18,1440.27 3446.9,1441.62L3432.6,1450.09C3430.55,1451.3 3428.66,1451.95 3426.28,1451.75ZM3389.27,1590.68C3388.9,1586.66 3389.75,1582.28 3390.44,1578.3C3391.03,1574.86 3391.76,1571.44 3392.43,1568.01L3396.49,1546.98C3397.53,1541.61 3401.88,1538.1 3407.41,1538.58C3412.5,1539.01 3416.7,1544.47 3415.83,1549.49C3414.61,1556.52 3413.4,1563.55 3412.19,1570.58C3411.6,1574.02 3411.08,1577.48 3410.41,1580.9C3410.06,1582.69 3409.61,1584.47 3409.2,1586.25C3408.67,1588.52 3408.33,1591.03 3407.31,1593.11C3406.51,1594.76 3405.21,1596.3 3403.64,1597.38C3403.24,1597.86 3402.63,1598.54 3402.52,1598.68C3399.76,1602.1 3393.38,1601.75 3391.89,1597.18C3391.69,1596.58 3391.51,1595.96 3391.31,1595.36C3390.2,1594.01 3389.43,1592.39 3389.27,1590.68ZM3183.28,1982.36C3182.2,1984.02 3179.16,1984.41 3177.72,1983.02C3176.16,1981.5 3175.06,1980.31 3174.22,1978.27C3173.7,1977.02 3173.18,1975.76 3172.67,1974.51C3170.05,1971.39 3169.75,1966.97 3169.31,1962.98C3168.93,1959.53 3168.55,1956.09 3168.18,1952.64C3167.38,1945.42 3166.74,1938.28 3166.41,1931.03C3166.19,1926.47 3168.76,1922.72 3173.41,1921.91C3177.88,1921.12 3181.78,1924.73 3182.55,1928.91C3183.85,1936.05 3184.84,1943.14 3185.68,1950.35C3186.11,1953.93 3186.53,1957.52 3186.95,1961.1C3187.43,1965.18 3188.3,1969.82 3186.18,1973.46C3186,1974.57 3185.81,1975.68 3185.63,1976.8C3185.27,1978.99 3184.47,1980.54 3183.28,1982.36ZM3238.99,1844.98C3236.47,1847.15 3233.8,1848.64 3230.87,1850.2C3228.13,1851.65 3225.73,1852.8 3222.53,1852.62C3219.86,1852.47 3218.18,1850.06 3217.62,1847.74C3216.81,1844.39 3218.48,1840.85 3219.77,1837.83C3221.2,1834.49 3223.08,1831.87 3225.52,1829.23C3229.89,1824.52 3234.48,1820.18 3239.7,1816.42C3249.78,1809.17 3260.87,1803.16 3272.48,1798.73C3277.9,1796.66 3283.64,1799.23 3286.03,1804.43C3288.39,1809.56 3285.36,1815.86 3280.34,1817.95C3277.61,1819.1 3274.9,1820.31 3272.24,1821.63C3270.99,1822.26 3269.74,1822.9 3268.5,1823.56C3268.37,1823.63 3267.64,1824.03 3267.21,1824.27C3266.9,1824.45 3266.46,1824.7 3266.38,1824.75C3261.54,1827.59 3256.89,1830.74 3252.45,1834.17C3247.91,1837.68 3243.33,1841.23 3238.99,1844.98ZM3229.3,1903.27C3228.06,1900.89 3228.73,1898.18 3229.3,1895.72C3229.84,1893.34 3230.33,1890.78 3231.37,1888.56C3233.63,1883.7 3237.05,1879.85 3240.9,1876.19C3247.25,1870.17 3254.87,1865.4 3262.9,1861.94C3267.68,1859.88 3272.98,1862.55 3275.05,1867.05C3277.26,1871.85 3274.31,1877.02 3269.95,1879.18C3269.1,1879.6 3268.27,1880.05 3267.44,1880.49C3266.99,1880.77 3266.52,1881.03 3266.07,1881.32C3264.53,1882.28 3263.02,1883.31 3261.56,1884.39C3260.01,1885.55 3258.5,1886.78 3257.05,1888.06C3256.71,1888.36 3256.37,1888.67 3256.04,1888.98C3255.92,1889.09 3255.55,1889.44 3255.39,1889.6C3255.08,1889.91 3254.77,1890.23 3254.46,1890.55C3251.34,1893.73 3248.52,1897.2 3245.11,1900.09C3243.8,1901.19 3242.38,1902.16 3241.08,1903.28C3239.24,1904.84 3237.66,1906.34 3235.15,1906.67C3232.56,1907.01 3230.44,1905.48 3229.3,1903.27ZM3221.71,1947.82C3225.78,1947.1 3229.51,1950.41 3230.13,1954.27C3231.33,1961.65 3232.52,1969.02 3233.71,1976.39C3234.29,1979.96 3234.77,1983.53 3235.24,1987.1C3235.57,1989.53 3236,1991.91 3235.85,1994.37C3235.74,1996.24 3235.47,1998.11 3235.27,1999.97C3234.47,2007.31 3223.28,2009.02 3220.75,2001.84C3220.09,1999.97 3219.36,1998.11 3218.82,1996.2C3218.18,1993.94 3218.01,1991.71 3217.79,1989.39C3217.43,1985.8 3217.08,1982.21 3216.83,1978.61C3216.31,1971.14 3215.79,1963.68 3215.26,1956.22C3214.97,1952.03 3217.51,1948.56 3221.71,1947.82ZM3215.61,2115.24C3211.24,2116.1 3206.45,2111.86 3203.85,2108.77C3192.96,2095.85 3184.68,2080.79 3175.68,2066.52C3172.99,2062.26 3173.44,2057.24 3177.47,2053.94C3181.05,2051.01 3187.49,2051.79 3190.07,2055.74C3195.32,2063.79 3200.58,2071.83 3205.83,2079.87C3208.39,2083.78 3211.2,2087.64 3213.35,2091.79C3215.38,2095.71 3218.28,2100.19 3219.12,2104.55C3219.83,2108.26 3220.59,2114.26 3215.61,2115.24ZM3247.52,2097.86L3237.18,2074.26C3235.12,2069.54 3237.78,2064.3 3242.22,2062.26C3246.88,2060.13 3252.21,2062.94 3254.23,2067.31C3257.79,2075.01 3261.34,2082.7 3264.89,2090.4C3266.67,2094.25 3268.44,2098.09 3270.22,2101.94C3271.13,2103.91 3272.14,2105.87 3272.88,2107.91C3273.91,2110.77 3275.44,2113.89 3274.69,2116.95C3274.01,2119.79 3272.88,2121.93 3270.27,2123.41C3268.05,2124.66 3264.95,2125.19 3262.56,2123.92C3261.28,2123.24 3260.12,2122.59 3259.11,2121.55C3258.08,2120.5 3257.46,2119.28 3256.76,2118C3256.23,2117.04 3255.71,2116.08 3255.18,2115.12C3254.2,2113.31 3253.44,2111.38 3252.62,2109.5C3250.92,2105.62 3249.22,2101.74 3247.52,2097.86ZM3261.4,2220.64C3256.78,2219.01 3254.33,2214.33 3251.57,2210.55C3249.16,2207.25 3246.95,2203.85 3244.73,2200.43C3240.29,2193.59 3235.84,2186.76 3231.4,2179.93C3228.65,2175.71 3229.2,2170.61 3233.18,2167.35C3236.7,2164.47 3243.32,2165.12 3245.79,2169.15C3250.13,2176.22 3254.47,2183.29 3258.81,2190.36C3261.26,2194.35 3263.66,2198.33 3265.89,2202.45C3266.86,2204.22 3267.82,2206 3268.78,2207.77C3270.16,2210.31 3270.72,2212.57 3270.41,2215.47C3269.93,2219.9 3265.28,2222.01 3261.4,2220.64ZM3305.8,2211.11C3304.95,2210.24 3304.22,2209.32 3303.46,2208.37C3302.49,2207.14 3301.53,2205.92 3300.55,2204.69C3298.61,2202.24 3296.87,2199.65 3295.1,2197.07C3291.41,2191.7 3287.72,2186.34 3284.03,2180.97C3280.87,2176.38 3281.69,2170.58 3286.01,2167.04C3290.11,2163.68 3296.9,2164.81 3299.96,2169.03C3304.69,2175.57 3309.43,2182.11 3314.16,2188.64C3316.45,2191.8 3318.47,2195.19 3320.51,2198.52C3321.52,2199.89 3322.15,2201.41 3322.38,2203.1C3322.39,2203.41 3322.39,2203.55 3322.39,2203.81C3322.63,2204.52 3322.81,2205.33 3322.99,2205.93C3323.38,2207.18 3323.95,2208.56 3324.12,2209.84C3324.28,2211.03 3324.07,2212.19 3323.88,2213.35C3323.45,2216.08 3320.78,2218.52 3317.88,2217.97C3316.79,2217.76 3315.53,2217.58 3314.52,2217.16C3313.51,2216.73 3312.59,2215.98 3311.7,2215.32C3310.71,2214.59 3309.71,2213.85 3308.7,2213.13C3307.66,2212.66 3306.71,2212.04 3305.8,2211.11ZM3323.14,2293.68C3322.44,2295.23 3320.97,2295.95 3319.32,2295.87C3317.09,2295.76 3315.43,2294.56 3313.61,2293.41C3311.78,2292.24 3310.34,2290.67 3309.03,2288.93C3306.89,2286.08 3305.28,2282.68 3303.48,2279.6C3299.76,2273.25 3296.04,2266.9 3292.32,2260.55C3290.41,2257.28 3290.56,2253.64 3293.66,2251.11C3296.34,2248.91 3301.18,2249.49 3303.11,2252.46L3315.27,2271.18C3317.49,2274.61 3320.06,2278 3321.86,2281.68C3323.53,2285.12 3324.79,2290.01 3323.14,2293.68ZM3365.46,2171C3365.26,2173.31 3363.84,2175.32 3362.11,2176.74C3360.48,2178.07 3357.9,2178.65 3355.86,2178.38C3353.83,2178.12 3351.24,2176.82 3350.11,2175.03C3347.5,2170.89 3344.89,2166.76 3342.28,2162.62C3339.39,2158.05 3337.02,2153.15 3334.52,2148.36C3332.76,2144.99 3334.8,2140.65 3337.84,2138.93C3341.1,2137.09 3345.35,2137.89 3347.64,2140.93C3350.52,2144.76 3353.55,2148.51 3356.11,2152.56C3358.68,2156.62 3361.24,2160.69 3363.81,2164.76C3365.05,2166.73 3365.65,2168.68 3365.46,2171ZM3353.19,2058.05C3355.02,2056.55 3357.92,2055.9 3360.22,2056.2C3362.51,2056.5 3365.41,2057.96 3366.69,2059.97C3368.51,2062.82 3370.32,2065.67 3372.14,2068.52C3374.27,2071.86 3376.63,2075.15 3378.43,2078.68C3379.95,2081.68 3381.2,2084.7 3382.3,2087.86C3383.55,2091.46 3385.37,2095.13 3384.95,2098.99C3384.57,2102.57 3380.84,2104.23 3377.72,2103.15C3374.45,2102.02 3372.09,2098.99 3369.66,2096.62C3366.95,2093.98 3364.41,2091.27 3362.06,2088.3C3360.05,2085.76 3358.46,2082.8 3356.72,2080.07C3354.91,2077.22 3353.09,2074.37 3351.28,2071.53C3348.38,2066.98 3348.89,2061.56 3353.19,2058.05ZM3330.77,2108.72C3331.66,2111.2 3331.66,2114.6 3329.88,2116.79C3329.83,2117.05 3329.79,2117.31 3329.74,2117.57C3329.11,2121.3 3324.74,2123.32 3321.64,2120.87C3321.36,2120.66 3321.09,2120.44 3320.82,2120.23C3318.2,2119.69 3315.88,2117.54 3314.9,2115.18C3309.63,2102.44 3304.81,2089.56 3299.95,2076.66C3298.24,2072.12 3300.33,2067.37 3304.7,2065.37C3308.92,2063.43 3314.35,2065.9 3316.02,2070.12C3321.07,2082.95 3326.13,2095.74 3330.77,2108.72ZM3331.95,2027.08C3329.7,2027.48 3326.95,2026.61 3325.2,2025.23C3323.19,2023.65 3322.46,2021.7 3321.84,2019.33C3320.39,2013.81 3318.81,2008.34 3317.87,2002.71C3316.93,1997.12 3316,1991.53 3315.07,1985.94C3314.21,1980.8 3318.25,1976.35 3323.08,1975.5C3325.4,1975.09 3328.25,1975.99 3330.07,1977.42C3332.07,1978.99 3333.02,1981.11 3333.55,1983.52C3334.76,1989.07 3335.98,1994.63 3337.2,2000.18C3338.42,2005.73 3338.98,2011.36 3339.69,2016.99C3340.32,2021.99 3336.77,2026.23 3331.95,2027.08ZM3449.7,1696.84C3454.74,1697.27 3458.71,1702.59 3457.94,1707.51C3456.53,1716.48 3455.24,1725.47 3453.71,1734.41C3452.95,1738.89 3451.95,1743.34 3451.06,1747.8C3450.05,1752.82 3448.95,1757.62 3446.81,1762.31C3445.12,1766.01 3441.44,1768.04 3437.42,1767.7C3433.72,1767.38 3429.9,1763.76 3429.69,1760C3429.17,1750.52 3431.23,1741.01 3433.13,1731.74C3434.96,1722.82 3437.06,1713.94 3439.03,1705.05C3440.18,1699.83 3444.18,1696.36 3449.7,1696.84Z" style="fill:white;fill-rule:nonzero;"/>
        </g>
    </g>
</svg>
