<?xml version="1.0" encoding="UTF-8" standalone="no"?>
<!DOCTYPE svg PUBLIC "-//W3C//DTD SVG 1.1//EN" "http://www.w3.org/Graphics/SVG/1.1/DTD/svg11.dtd">
<svg width="100%" height="100%" viewBox="0 0 100 270" version="1.1" xmlns="http://www.w3.org/2000/svg" xmlns:xlink="http://www.w3.org/1999/xlink" xml:space="preserve" xmlns:serif="http://www.serif.com/" style="fill-rule:evenodd;clip-rule:evenodd;stroke-linejoin:round;stroke-miterlimit:2;">
    <g transform="matrix(2.10079,0,0,2.10079,-713.447,-691.161)">
        <g>
            <path d="M385.428,335.721C381.852,322.869 370.962,332.935 362.53,343.233C361.231,341.41 359.505,339.761 357.401,338.323C355.277,336.876 352.986,335.75 350.589,334.975C350.459,334.933 350.371,334.9 350.179,334.916C350.006,334.93 349.789,335.002 349.63,335.133C349.633,335.134 349.636,335.135 349.639,335.136C349.636,335.138 349.635,335.142 349.632,335.144C347.806,334.636 345.773,334.399 344.109,335.334C343.332,335.775 342.846,336.321 342.387,337.066C342.351,337.124 342.334,337.188 342.325,337.252C342.163,337.421 342.012,337.599 341.875,337.787C342.017,337.597 342.168,337.421 342.329,337.259C338.118,341.496 338.013,360.47 366.353,380.27C366.481,380.357 366.624,380.437 366.801,380.438C366.799,380.435 366.798,380.432 366.795,380.429C366.804,380.429 366.813,380.428 366.821,380.428C366.856,380.466 366.883,380.51 366.923,380.541C366.897,380.512 366.881,380.475 366.871,380.435C366.963,380.803 367.828,380.928 368.235,380.222C377.556,363.811 380.417,361.233 383.704,353.334C384.703,350.932 385.423,348.58 385.843,346.344C386.299,343.896 386.39,341.479 386.114,339.161C385.992,338.078 385.76,336.921 385.428,335.721ZM350.001,336.681C350.05,336.698 350.117,336.721 350.161,336.736C350.103,336.716 350.063,336.702 350.001,336.681ZM351.201,335.784C351.167,335.736 351.128,335.702 351.084,335.664C351.129,335.702 351.167,335.736 351.201,335.784ZM342.823,337.936C342.978,337.971 342.951,337.984 343.101,337.954C342.953,337.987 342.976,337.973 342.823,337.936ZM343.477,337.689C343.775,337.279 343.548,337.606 343.802,337.288C343.528,337.632 343.799,337.253 343.477,337.689ZM345.176,336.3C345.554,336.164 345.798,336.018 347.022,336.056C347.719,336.109 348.456,336.244 349.295,336.475C348.456,336.244 347.72,336.11 347.023,336.057C345.836,336.011 345.551,336.167 345.176,336.3ZM350.467,336.831C350.654,336.879 350.706,336.864 350.81,336.844C350.711,336.866 350.657,336.882 350.467,336.831ZM362.538,343.254L362.441,343.373L362.538,343.254ZM362.394,343.43C362.063,343.841 361.997,344.291 362.441,344.574C362.001,344.295 362.057,343.845 362.394,343.43ZM362.56,344.641C362.559,344.641 362.559,344.641 362.56,344.641C362.778,344.376 362.847,344.023 362.768,343.708C362.848,344.023 362.779,344.376 362.56,344.641ZM366.934,378.977C366.779,379.263 366.814,379.2 366.71,379.385C366.818,379.189 366.788,379.244 366.934,378.977ZM366.676,380.239C366.67,380.227 366.66,380.216 366.655,380.203C366.656,380.206 366.677,380.239 366.676,380.239ZM366.583,379.712C366.583,379.708 366.582,379.705 366.583,379.701C366.582,379.705 366.583,379.709 366.583,379.712ZM366.582,379.951C366.583,379.958 366.595,379.998 366.596,380.002C366.592,379.985 366.584,379.969 366.582,379.951ZM366.864,380.418L366.863,380.417C367.131,380.395 367.382,380.212 367.463,379.922C367.381,380.217 367.128,380.396 366.864,380.418ZM367.465,379.906C367.598,379.39 367.331,379.284 367.006,379.031C367.334,379.282 367.596,379.398 367.465,379.906Z" style="fill:rgb(180,106,72);fill-rule:nonzero;"/>
            <path d="M369.908,408.33C359.029,387.192 341.212,392.851 355.509,406.615C359.189,410.157 364.018,413.299 369.05,414.611C367.987,417.928 369.952,420.253 367.271,422.851C366.25,422.221 365.65,422.463 364.813,422.012C363.473,420.961 362.315,422.57 363.31,423.542C363.924,424.18 364.368,424.864 365.168,425.261C365.361,425.356 365.577,425.419 365.787,425.457C365.791,425.458 365.794,425.458 365.798,425.459C364.984,427.623 363.837,428.06 360.671,429.792C360.511,429.909 360.386,430.056 360.298,430.233C360.169,430.51 360.152,430.833 360.257,431.12C360.358,431.396 360.569,431.626 360.834,431.752C361.092,431.875 361.454,431.919 361.721,431.796C362.969,431.205 364.241,430.633 365.375,429.837C365.993,429.405 366.585,428.879 367.033,428.273C367.667,427.415 368.414,425.64 368.274,424.468C371.955,421.038 369.604,417.632 370.613,414.988C370.696,415.26 370.918,415.48 371.211,415.541C371.688,415.642 372.16,415.768 372.627,415.916C374.866,416.691 377.786,418.35 377.742,420.71C373.636,420.56 374.468,425.334 376.47,425.558C377.646,425.686 378.484,424.679 378.981,423.61C379.967,424.055 380.641,424.57 380.602,426.65C380.531,427.583 380.319,428.494 380.04,429.39C379.702,430.383 379.281,431.338 378.814,432.278C378.497,432.907 378.795,433.699 379.419,433.998C379.999,434.28 380.706,434.134 381.139,433.393C383.4,429.546 385.206,422.932 379.639,421.073C379.839,417.267 375.397,414.865 371.673,414.044C376.428,409.424 386.22,400.198 384.024,391.073C382.702,385.518 373.621,381.81 369.908,408.33ZM355.324,396.9C362.003,399.269 365.53,406.983 368.896,413.049C356.864,409.586 347.177,394.458 355.324,396.9ZM371.289,411.259C371.208,411.071 371.13,410.882 371.047,410.695C371.554,406.518 372.391,402.335 373.713,398.287C373.198,400.15 376.057,389.441 379.8,389.367C380.972,389.512 381.514,390.735 381.789,391.88C383.274,399.714 373.872,408.551 371.289,411.259Z" style="fill:rgb(180,106,72);fill-rule:nonzero;"/>
            <path d="M373.649,398.482C373.665,398.436 373.681,398.391 373.695,398.344C373.648,398.485 373.649,398.482 373.649,398.482Z" style="fill:rgb(180,106,72);fill-rule:nonzero;"/>
        </g>
        <g>
            <path d="M344.022,335.87C344.023,335.869 344.025,335.869 344.026,335.868C344.025,335.869 344.022,335.871 344.022,335.87Z" style="fill-rule:nonzero;"/>
            <path d="M364.076,340.095C363.626,340.742 363.202,341.405 362.82,342.09C359.286,338.535 355.793,335.656 350.956,334.314C331.238,328.845 337.598,363.113 367.071,381.11C367.097,381.253 367.042,381.147 367.158,381.334C367.705,391.696 368.416,400.213 369.361,409.928C358.721,390.18 340.074,392.039 357.49,407.509C360.572,410.237 364.729,412.967 368.735,414.077C368.765,414.271 368.881,414.431 369.04,414.532C368.783,414.936 368.939,415.467 369.509,415.634C369.277,419.372 369.416,421.992 366.976,423.347C366.45,422.86 366.268,422.763 365.861,422.176C365.687,421.914 365.507,421.724 365.126,421.735C364.967,421.737 364.847,421.799 364.713,421.873C363.594,422.491 363.348,426.156 366.539,424.871C366.689,425.346 366.243,426.897 365.224,427.894C364.613,428.448 363.925,428.896 363.2,429.284C362.435,429.67 361.634,429.998 360.794,430.193C360.638,430.228 360.496,430.388 360.43,430.526C360.211,430.983 360.54,431.584 361.244,431.423C366.104,430.345 368.635,426.425 367.712,424.279C369.486,423.254 370.067,421.637 370.349,419.594C371.332,428.811 374.295,454.912 374.661,456.861C374.695,457.05 374.752,457.204 374.903,457.332C375.377,457.721 376.072,457.356 376.033,456.747C375.849,453.837 372.832,429.996 371.256,415.81C371.522,415.794 371.59,415.856 371.866,415.659C374.976,416.13 378.181,419.4 378.449,421.677C377.94,421.7 377.451,421.894 377.05,422.217C376.226,422.891 375.474,424.51 375.496,424.774C375.577,425.749 377.409,425.03 378.212,424.507C378.723,424.179 379.151,423.679 379.374,423.078C382.16,424.531 380.954,429.366 379.461,431.875C379.2,432.328 379.704,432.966 380.258,432.751C381.129,432.445 382.036,428.852 382.187,427.602C382.481,425.082 381.899,422.789 379.556,421.878C379.44,418.727 375.183,414.941 371.99,414.597C371.911,414.507 371.817,414.432 371.705,414.388C372.08,414.338 373.308,414.213 373.543,413.935C373.919,413.491 373.548,412.841 373.014,412.885C373.01,412.885 373.006,412.886 373.002,412.886C372.748,412.915 372.493,412.95 372.239,412.984C377.279,408.377 387.542,392.591 381.067,388.571C379.133,387.365 377.402,388.313 376.09,390.182C373.044,394.497 371.261,404.445 370.593,409.731C369.629,400.547 368.742,390.694 368.248,381.437C368.296,381.387 368.345,381.336 368.365,381.276C370.355,375.31 374.657,371.028 378.057,365.312C378.549,364.48 378.992,363.619 379.438,362.762C381.256,359.292 383.023,355.794 384.456,352.142C385.243,350.137 385.926,348.084 386.435,345.987C390.562,329.115 377.488,320.866 364.076,340.095ZM365.197,422.979L365.195,422.979L365.197,422.979ZM365.201,423.902C365.123,423.791 365.17,423.523 365.201,423.392C365.34,423.555 365.546,423.773 365.676,423.898C365.566,423.927 365.308,423.955 365.201,423.902ZM351.775,396.883C351.771,396.886 351.768,396.89 351.764,396.893C351.765,396.892 351.776,396.882 351.775,396.883ZM351.763,396.893C351.762,396.895 351.74,396.914 351.738,396.916C351.746,396.908 351.755,396.901 351.763,396.893ZM352.805,396.634C353.314,396.674 353.811,396.789 354.297,396.938C358.95,398.475 362.142,402.611 363.191,403.499C363.739,404.4 367.186,407.502 369.521,413.15C359.048,410.594 348.048,396.484 352.805,396.634ZM375.706,424.298C375.746,424.261 375.735,424.27 375.772,424.251C375.75,424.265 375.727,424.281 375.706,424.298ZM377.142,423.837C377.419,423.368 377.765,422.999 378.285,422.846C378.057,423.313 377.622,423.634 377.142,423.837ZM380.869,390.231C384.318,394.247 375.96,406.992 371.306,411.895C371.959,404.74 375.997,385.264 380.869,390.231ZM378.401,361.941C374.279,369.876 369.525,374.156 367.314,380.119C362.629,377.254 357.862,373.369 353.659,368.778C353.659,368.778 348.745,363.645 345.034,356.558C345.038,356.568 345.043,356.579 345.048,356.589C341.533,349.808 337.312,339.63 344.022,335.87C343.994,335.886 343.965,335.901 343.935,335.914C344.047,335.856 344.137,335.807 344.027,335.867C346.28,334.735 348.764,334.984 351.195,335.758C355.734,337.276 358.899,340.169 362.143,343.701C362.391,343.967 362.973,343.978 363.288,343.606C363.439,343.428 363.505,343.215 363.453,342.938C363.547,342.885 363.632,342.812 363.688,342.71C366.448,337.643 377.188,325.517 383.251,331.977C389.781,339.339 382.927,353.165 378.401,361.941Z" style="fill-rule:nonzero;"/>
            <path d="M367.867,359.049C368.192,358.604 368.451,358.114 368.679,357.614C369.054,356.796 367.852,356.229 367.455,357.028C367.247,357.447 367.04,357.833 366.765,358.187C366.278,354.671 367.059,352.885 366.247,352.594L366.243,352.594C366.049,352.502 363.643,352.287 363.427,352.278C362.702,352.244 362.774,353.144 362.731,353.866C362.652,355.548 362.493,357.619 362.025,359.092C361.94,359.331 361.842,359.565 361.714,359.782C361.671,359.842 361.625,359.899 361.576,359.953C361.553,359.972 361.529,359.989 361.504,360.006C361.496,360.009 361.488,360.012 361.48,360.015C361.476,360.015 361.472,360.016 361.468,360.016C361.465,360.016 361.463,360.015 361.46,360.015C360.178,358.96 360.042,350.042 359.955,349.085C359.887,348.27 358.718,348.307 358.645,349.017C358.574,349.725 358.571,350.438 358.556,351.149C358.531,352.12 358.504,353.093 358.459,354.063C358.204,358.981 357.069,362.724 355.992,357.956C355.647,356.335 355.509,354.673 355.398,353.027C355.347,352.281 355.311,351.538 355.272,350.794C355.247,350.312 355.233,349.833 355.175,349.357C355.138,349.046 354.878,348.805 354.559,348.832C354.236,348.859 354.023,349.139 354.034,349.452C354.085,350.782 354.074,352.113 354.011,353.445C354.01,353.309 353.935,357.044 352.863,360.344C352.882,360.275 352.804,360.529 352.638,360.953C352.426,360.502 352.331,360.013 352.215,359.53C352.149,359.266 351.806,359.15 351.574,359.236C351.452,359.279 351.349,359.373 351.296,359.488C351.233,359.619 351.243,359.74 351.277,359.878C351.532,360.914 351.634,361.599 352.471,362.277C352.721,362.482 353.114,362.412 353.251,362.109C353.935,360.641 354.36,359.061 354.642,357.463C354.759,358.155 354.905,358.852 355.127,359.521C355.304,360.053 355.551,360.576 355.94,360.983C356.781,361.859 358.631,362.013 359.393,358.067C360.199,362.369 362.387,361.934 363.234,359.726C363.853,358.101 364.008,355.908 364.139,353.775C364.243,353.787 365.035,353.88 365.189,353.897C365.02,358.194 365.287,362.516 367.867,359.049Z" style="fill-rule:nonzero;"/>
            <path d="M352.87,360.312C352.874,360.301 352.878,360.29 352.882,360.279C352.896,360.237 352.883,360.271 352.87,360.312Z" style="fill-rule:nonzero;"/>
            <path d="M371.65,355.48C371.345,354.98 370.213,353.307 370.152,352.733C370.57,352.677 371.183,352.827 371.59,352.936C372.307,353.124 372.659,351.97 371.816,351.746C371.125,351.563 370.409,351.406 369.717,351.573C369.001,351.75 368.507,352.498 369.337,354.202C369.591,354.726 370.265,355.975 370.249,355.94C370.269,355.977 370.288,356.014 370.308,356.051C370.175,355.818 370.927,357.109 371.18,358.092C371.204,358.222 371.22,358.352 371.223,358.483C371.159,358.95 370.141,358.965 369.664,358.968C368.718,358.966 368.169,361.135 371.279,360.43C372.015,360.265 372.69,359.702 372.813,358.839C372.874,358.416 372.803,358.012 372.692,357.607C372.517,356.955 372.007,356.056 371.65,355.48Z" style="fill-rule:nonzero;"/>
            <path d="M373.6,359.006C373.693,360.128 375.396,359.987 375.303,358.864C375.209,357.743 373.507,357.884 373.6,359.006Z" style="fill-rule:nonzero;"/>
            <path d="M344.589,338.439C344.784,338.273 345.011,338.137 344.863,337.923C344.791,337.821 344.629,337.784 344.529,337.866C339.62,341.878 343.718,349.639 346.2,355.21C346.255,355.335 346.386,355.405 346.519,355.357C346.637,355.314 346.717,355.163 346.663,355.042C344.452,350.027 340.309,342.401 344.589,338.439Z" style="fill-rule:nonzero;"/>
            <path d="M349.688,337.822C349.971,337.895 350.255,337.974 350.532,338.066C350.527,338.063 350.521,338.061 350.516,338.059C351.938,338.535 353.118,339.152 354.151,339.82C356.118,341.105 357.617,342.585 358.734,344.232C358.911,344.501 359.344,344.229 359.146,343.943C358.028,342.318 356.587,340.945 354.981,339.811C354.228,339.278 349.669,336.66 349.497,337.547C349.473,337.681 349.563,337.792 349.688,337.822Z" style="fill-rule:nonzero;"/>
            <path d="M368.604,339.21C368.142,339.747 367.705,340.308 367.326,340.909C367.293,340.96 367.296,341.037 367.315,341.091C367.338,341.148 367.379,341.196 367.437,341.225C367.491,341.25 367.558,341.256 367.619,341.232C367.68,341.209 367.717,341.168 367.75,341.114C367.764,341.092 367.778,341.069 367.792,341.047C368.205,340.419 368.682,339.84 369.175,339.277C372.563,335.418 375.967,333.731 375.967,333.731C379.307,332.013 380.823,332.893 381.604,334.372C381.972,335.128 382.146,335.937 382.241,336.779C382.292,337.161 382.824,337.07 382.788,336.734C382.69,335.914 382.53,335.096 382.194,334.341C379.878,329.076 372.334,334.879 368.604,339.21Z" style="fill-rule:nonzero;"/>
            <path d="M382.349,344.414C382.239,344.423 382.154,344.507 382.126,344.616C380.686,350.465 378.176,356.448 379.433,355.56C379.492,355.518 379.524,355.46 379.541,355.388C380.53,351.817 381.735,348.31 382.618,344.711C382.655,344.561 382.523,344.399 382.349,344.414Z" style="fill-rule:nonzero;"/>
            <path d="M356.379,368.079C356.173,368.096 356.091,368.367 356.251,368.492C359.038,370.721 361.771,373.014 364.538,375.271C364.791,375.476 365.075,375.093 364.841,374.909C364.679,374.778 356.585,368.062 356.379,368.079Z" style="fill-rule:nonzero;"/>
            <path d="M372.564,366.368C372.39,366.432 367.699,373.64 367.599,373.813C367.455,374.064 367.851,374.312 368.026,374.018C368.339,373.467 368.671,372.933 369.015,372.402C369.001,372.418 368.992,372.437 368.979,372.453C370.248,370.515 371.651,368.672 372.873,366.704C372.974,366.534 372.79,366.285 372.564,366.368Z" style="fill-rule:nonzero;"/>
        </g>
    </g>
</svg>
