<?xml version="1.0" encoding="UTF-8" standalone="no"?>
<!DOCTYPE svg PUBLIC "-//W3C//DTD SVG 1.1//EN" "http://www.w3.org/Graphics/SVG/1.1/DTD/svg11.dtd">
<svg width="100%" height="100%" viewBox="0 0 500 1168" version="1.1" xmlns="http://www.w3.org/2000/svg" xmlns:xlink="http://www.w3.org/1999/xlink" xml:space="preserve" xmlns:serif="http://www.serif.com/" style="fill-rule:evenodd;clip-rule:evenodd;stroke-linejoin:round;stroke-miterlimit:2;">
    <g transform="matrix(6.69882,0,0,6.69882,0,-1347.11)">
        <path d="M13.919,375.191C24.571,374.888 35.484,373.304 44.738,368.019C53.991,362.735 61.327,353.156 61.576,342.503C61.704,337.002 59.993,331.601 59.906,326.099C59.618,307.726 77.145,291.837 74.424,273.663C72.726,262.318 63.279,253.526 52.964,248.504C42.65,243.483 31.205,241.327 20.415,237.431C12.982,234.745 5.579,230.944 0,225.492L0,375.157C4.64,375.234 9.282,375.324 13.919,375.191Z" style="fill:rgb(231,163,123);fill-rule:nonzero;"/>
    </g>
    <g transform="matrix(6.69882,0,0,6.69882,-26.0048,-1356.75)">
        <path d="M-0.492,367.93C-3.306,358.319 2.414,348.61 8.707,342.728C12.49,339.192 16.836,336.316 21.04,333.535C24.163,331.469 27.391,329.332 30.317,326.965C38.256,320.541 42.52,312.774 42.015,305.656C41.786,302.419 40.642,299.357 39.431,296.114C38.561,293.784 37.661,291.374 37.117,288.868C35.01,279.143 38.387,269.534 41.652,260.242C42.133,258.875 42.61,257.515 43.068,256.161C47.59,242.786 47.324,232.608 42.277,225.908C37.692,219.822 30.22,217.566 22.309,215.177C17.783,213.809 13.102,212.395 8.918,210.193C0.03,205.516 -6.697,196.898 -9.078,187.14L-6.274,186.456C-4.086,195.422 2.095,203.341 10.262,207.64C14.201,209.713 18.748,211.085 23.144,212.413C31.15,214.832 39.43,217.332 44.583,224.172C50.238,231.678 50.648,242.752 45.802,257.086C45.341,258.45 44.86,259.821 44.376,261.199C41.243,270.112 38.003,279.329 39.939,288.256C40.438,290.558 41.3,292.87 42.135,295.104C43.364,298.395 44.636,301.8 44.894,305.452C45.467,313.524 40.816,322.183 32.133,329.208C29.099,331.663 25.812,333.838 22.633,335.942C18.528,338.657 14.284,341.466 10.677,344.837C5.013,350.132 -0.168,358.765 2.277,367.117L-0.492,367.93Z" style="fill:rgb(180,106,72);fill-rule:nonzero;"/>
    </g>
</svg>
